<?xml version="1.0" encoding="utf-8" standalone="no"?>
<!DOCTYPE svg PUBLIC "-//W3C//DTD SVG 1.1//EN"
  "http://www.w3.org/Graphics/SVG/1.1/DTD/svg11.dtd">
<svg xmlns:xlink="http://www.w3.org/1999/xlink" width="548.714797pt" height="569.4375pt" viewBox="0 0 548.714797 569.4375" xmlns="http://www.w3.org/2000/svg" version="1.1">
 <metadata>
  <rdf:RDF xmlns:dc="http://purl.org/dc/elements/1.1/" xmlns:cc="http://creativecommons.org/ns#" xmlns:rdf="http://www.w3.org/1999/02/22-rdf-syntax-ns#">
   <cc:Work>
    <dc:type rdf:resource="http://purl.org/dc/dcmitype/StillImage"/>
    <dc:date>2026-01-31T14:22:38.047590</dc:date>
    <dc:format>image/svg+xml</dc:format>
    <dc:creator>
     <cc:Agent>
      <dc:title>Matplotlib v3.10.8, https://matplotlib.org/</dc:title>
     </cc:Agent>
    </dc:creator>
   </cc:Work>
  </rdf:RDF>
 </metadata>
 <defs>
  <style type="text/css">*{stroke-linejoin: round; stroke-linecap: butt}</style>
 </defs>
 <g id="figure_1">
  <g id="patch_1">
   <path d="M 0 569.4375 
L 548.714797 569.4375 
L 548.714797 0 
L 0 0 
z
" style="fill: #ffffff"/>
  </g>
  <g id="axes_1">
   <g id="patch_2">
    <path d="M 231.431477 75.868766 
C 197.016928 78.09997 163.788967 89.353894 135.101475 108.494617 
C 106.413983 127.63534 83.265761 153.996448 67.993285 184.917169 
C 52.72081 215.837889 45.855817 250.241669 48.091228 284.655945 
C 50.326639 319.070221 61.584625 352.296807 80.728854 380.981958 
C 68.765973 347.930266 65.152154 312.429307 70.209674 277.645024 
C 75.267195 242.86074 88.841107 209.858821 109.720903 181.582346 
C 121.862474 156.687381 138.899195 134.493755 159.81058 116.330852 
C 180.721964 98.167949 205.08198 84.405806 231.431477 75.868766 
" clip-path="url(#p506268430c)" style="fill: #ff8080; opacity: 0.65"/>
   </g>
   <g id="patch_3">
    <path d="M 231.431477 75.868766 
C 252.087098 74.529597 272.825184 76.463142 292.877214 81.597748 
C 312.929244 86.732354 332.04442 95.0038 349.514366 106.105561 
C 394.485528 121.251986 433.145207 150.973822 459.3413 190.541287 
C 485.537393 230.108752 497.802491 277.305423 494.184788 324.620662 
C 503.650611 288.834445 503.302024 251.150284 493.175814 215.545299 
C 483.049604 179.940314 463.514996 147.712739 436.633638 122.263816 
C 409.75228 96.814893 376.504324 79.072545 340.398702 70.909267 
C 304.293079 62.74599 266.646278 64.459434 231.431477 75.868766 
" clip-path="url(#p506268430c)" style="fill: #80c080; opacity: 0.65"/>
   </g>
   <g id="patch_4">
    <path d="M 231.431477 75.868766 
C 205.08198 84.405806 180.721964 98.167949 159.81058 116.330852 
C 138.899195 134.493755 121.862474 156.687381 109.720903 181.582346 
C 136.552231 145.246006 174.239318 118.349656 217.324561 104.788254 
C 260.409803 91.226851 306.707939 91.688225 349.514366 106.105561 
C 332.04442 95.0038 312.929244 86.732354 292.877214 81.597748 
C 272.825184 76.463142 252.087098 74.529597 231.431477 75.868766 
" clip-path="url(#p506268430c)" style="fill: #c0a060; opacity: 0.65"/>
   </g>
   <g id="patch_5">
    <path d="M 80.728854 380.981958 
C 97.336344 426.866022 129.189264 465.694489 170.941786 490.950833 
C 212.694308 516.207177 261.872265 526.394761 310.222193 519.803818 
C 358.57212 513.212875 403.228903 490.233969 436.697858 454.723618 
C 470.166814 419.213267 490.464642 373.275739 494.184788 324.620662 
C 487.021621 351.701522 474.41164 377.039729 457.127105 399.083522 
C 439.842569 421.127315 418.243677 439.417317 393.653184 452.833414 
C 369.062692 466.249511 341.993048 474.51212 314.102049 477.115225 
C 286.21105 479.718329 258.079925 476.607682 231.431477 467.973784 
C 201.319322 466.021518 172.05786 457.157751 145.92399 442.072194 
C 119.79012 426.986636 97.479735 406.080987 80.728854 380.981958 
" clip-path="url(#p506268430c)" style="fill: #8080ff; opacity: 0.65"/>
   </g>
   <g id="patch_6">
    <path d="M 80.728854 380.981958 
C 97.479735 406.080987 119.79012 426.986636 145.92399 442.072194 
C 172.05786 457.157751 201.319322 466.021518 231.431477 467.973784 
C 203.367491 458.881263 177.580234 443.868006 155.817795 423.951746 
C 134.055355 404.035485 116.820852 379.676659 105.282593 352.526524 
C 93.744335 325.37639 88.16907 296.062623 88.934741 266.572371 
C 89.700411 237.082119 96.789315 208.097158 109.720903 181.582346 
C 88.841107 209.858821 75.267195 242.86074 70.209674 277.645024 
C 65.152154 312.429307 68.765973 347.930266 80.728854 380.981958 
" clip-path="url(#p506268430c)" style="fill: #c080c0; opacity: 0.65"/>
   </g>
   <g id="patch_7">
    <path d="M 349.514366 106.105561 
C 386.324903 129.497835 414.318318 164.494811 429.053728 205.544559 
C 443.789138 246.594308 444.44383 291.40492 430.913942 332.867629 
C 417.384054 374.330339 390.424994 410.130181 354.313553 434.587859 
C 318.202112 459.045537 274.954482 470.795518 231.431477 467.973784 
C 258.079925 476.607682 286.21105 479.718329 314.102049 477.115225 
C 341.993048 474.51212 369.062692 466.249511 393.653184 452.833414 
C 418.243677 439.417317 439.842569 421.127315 457.127105 399.083522 
C 474.41164 377.039729 487.021621 351.701522 494.184788 324.620662 
C 497.802491 277.305423 485.537393 230.108752 459.3413 190.541287 
C 433.145207 150.973822 394.485528 121.251986 349.514366 106.105561 
" clip-path="url(#p506268430c)" style="fill: #80b0d0; opacity: 0.65"/>
   </g>
   <g id="patch_8">
    <path d="M 109.720903 181.582346 
C 96.789315 208.097158 89.700411 237.082119 88.934741 266.572371 
C 88.16907 296.062623 93.744335 325.37639 105.282593 352.526524 
C 116.820852 379.676659 134.055355 404.035485 155.817795 423.951746 
C 177.580234 443.868006 203.367491 458.881263 231.431477 467.973784 
C 274.954482 470.795518 318.202112 459.045537 354.313553 434.587859 
C 390.424994 410.130181 417.384054 374.330339 430.913942 332.867629 
C 444.44383 291.40492 443.789138 246.594308 429.053728 205.544559 
C 414.318318 164.494811 386.324903 129.497835 349.514366 106.105561 
C 306.707939 91.688225 260.409803 91.226851 217.324561 104.788254 
C 174.239318 118.349656 136.552231 145.246006 109.720903 181.582346 
" clip-path="url(#p506268430c)" style="fill: #a898a8; opacity: 0.65"/>
   </g>
   <g id="text_1">
    <!-- HS only -->
    <g transform="translate(69.566551 187.60329) scale(0.09 -0.09)">
     <defs>
      <path id="DejaVuSans-48" d="M 628 4666 
L 1259 4666 
L 1259 2753 
L 3553 2753 
L 3553 4666 
L 4184 4666 
L 4184 0 
L 3553 0 
L 3553 2222 
L 1259 2222 
L 1259 0 
L 628 0 
L 628 4666 
z
" transform="scale(0.015625)"/>
      <path id="DejaVuSans-53" d="M 3425 4513 
L 3425 3897 
Q 3066 4069 2747 4153 
Q 2428 4238 2131 4238 
Q 1616 4238 1336 4038 
Q 1056 3838 1056 3469 
Q 1056 3159 1242 3001 
Q 1428 2844 1947 2747 
L 2328 2669 
Q 3034 2534 3370 2195 
Q 3706 1856 3706 1288 
Q 3706 609 3251 259 
Q 2797 -91 1919 -91 
Q 1588 -91 1214 -16 
Q 841 59 441 206 
L 441 856 
Q 825 641 1194 531 
Q 1563 422 1919 422 
Q 2459 422 2753 634 
Q 3047 847 3047 1241 
Q 3047 1584 2836 1778 
Q 2625 1972 2144 2069 
L 1759 2144 
Q 1053 2284 737 2584 
Q 422 2884 422 3419 
Q 422 4038 858 4394 
Q 1294 4750 2059 4750 
Q 2388 4750 2728 4690 
Q 3069 4631 3425 4513 
z
" transform="scale(0.015625)"/>
      <path id="DejaVuSans-20" transform="scale(0.015625)"/>
      <path id="DejaVuSans-6f" d="M 1959 3097 
Q 1497 3097 1228 2736 
Q 959 2375 959 1747 
Q 959 1119 1226 758 
Q 1494 397 1959 397 
Q 2419 397 2687 759 
Q 2956 1122 2956 1747 
Q 2956 2369 2687 2733 
Q 2419 3097 1959 3097 
z
M 1959 3584 
Q 2709 3584 3137 3096 
Q 3566 2609 3566 1747 
Q 3566 888 3137 398 
Q 2709 -91 1959 -91 
Q 1206 -91 779 398 
Q 353 888 353 1747 
Q 353 2609 779 3096 
Q 1206 3584 1959 3584 
z
" transform="scale(0.015625)"/>
      <path id="DejaVuSans-6e" d="M 3513 2113 
L 3513 0 
L 2938 0 
L 2938 2094 
Q 2938 2591 2744 2837 
Q 2550 3084 2163 3084 
Q 1697 3084 1428 2787 
Q 1159 2491 1159 1978 
L 1159 0 
L 581 0 
L 581 3500 
L 1159 3500 
L 1159 2956 
Q 1366 3272 1645 3428 
Q 1925 3584 2291 3584 
Q 2894 3584 3203 3211 
Q 3513 2838 3513 2113 
z
" transform="scale(0.015625)"/>
      <path id="DejaVuSans-6c" d="M 603 4863 
L 1178 4863 
L 1178 0 
L 603 0 
L 603 4863 
z
" transform="scale(0.015625)"/>
      <path id="DejaVuSans-79" d="M 2059 -325 
Q 1816 -950 1584 -1140 
Q 1353 -1331 966 -1331 
L 506 -1331 
L 506 -850 
L 844 -850 
Q 1081 -850 1212 -737 
Q 1344 -625 1503 -206 
L 1606 56 
L 191 3500 
L 800 3500 
L 1894 763 
L 2988 3500 
L 3597 3500 
L 2059 -325 
z
" transform="scale(0.015625)"/>
     </defs>
     <use xlink:href="#DejaVuSans-48"/>
     <use xlink:href="#DejaVuSans-53" transform="translate(75.195312 0)"/>
     <use xlink:href="#DejaVuSans-20" transform="translate(138.671875 0)"/>
     <use xlink:href="#DejaVuSans-6f" transform="translate(170.458984 0)"/>
     <use xlink:href="#DejaVuSans-6e" transform="translate(231.640625 0)"/>
     <use xlink:href="#DejaVuSans-6c" transform="translate(295.019531 0)"/>
     <use xlink:href="#DejaVuSans-79" transform="translate(322.802734 0)"/>
    </g>
    <!-- 43 -->
    <g transform="translate(81.030301 197.681321) scale(0.09 -0.09)">
     <defs>
      <path id="DejaVuSans-34" d="M 2419 4116 
L 825 1625 
L 2419 1625 
L 2419 4116 
z
M 2253 4666 
L 3047 4666 
L 3047 1625 
L 3713 1625 
L 3713 1100 
L 3047 1100 
L 3047 0 
L 2419 0 
L 2419 1100 
L 313 1100 
L 313 1709 
L 2253 4666 
z
" transform="scale(0.015625)"/>
      <path id="DejaVuSans-33" d="M 2597 2516 
Q 3050 2419 3304 2112 
Q 3559 1806 3559 1356 
Q 3559 666 3084 287 
Q 2609 -91 1734 -91 
Q 1441 -91 1130 -33 
Q 819 25 488 141 
L 488 750 
Q 750 597 1062 519 
Q 1375 441 1716 441 
Q 2309 441 2620 675 
Q 2931 909 2931 1356 
Q 2931 1769 2642 2001 
Q 2353 2234 1838 2234 
L 1294 2234 
L 1294 2753 
L 1863 2753 
Q 2328 2753 2575 2939 
Q 2822 3125 2822 3475 
Q 2822 3834 2567 4026 
Q 2313 4219 1838 4219 
Q 1578 4219 1281 4162 
Q 984 4106 628 3988 
L 628 4550 
Q 988 4650 1302 4700 
Q 1616 4750 1894 4750 
Q 2613 4750 3031 4423 
Q 3450 4097 3450 3541 
Q 3450 3153 3228 2886 
Q 3006 2619 2597 2516 
z
" transform="scale(0.015625)"/>
     </defs>
     <use xlink:href="#DejaVuSans-34"/>
     <use xlink:href="#DejaVuSans-33" transform="translate(63.623047 0)"/>
    </g>
   </g>
   <g id="text_2">
    <!-- HM only -->
    <g transform="translate(395.511196 127.391097) scale(0.09 -0.09)">
     <defs>
      <path id="DejaVuSans-4d" d="M 628 4666 
L 1569 4666 
L 2759 1491 
L 3956 4666 
L 4897 4666 
L 4897 0 
L 4281 0 
L 4281 4097 
L 3078 897 
L 2444 897 
L 1241 4097 
L 1241 0 
L 628 0 
L 628 4666 
z
" transform="scale(0.015625)"/>
     </defs>
     <use xlink:href="#DejaVuSans-48"/>
     <use xlink:href="#DejaVuSans-4d" transform="translate(75.195312 0)"/>
     <use xlink:href="#DejaVuSans-20" transform="translate(161.474609 0)"/>
     <use xlink:href="#DejaVuSans-6f" transform="translate(193.261719 0)"/>
     <use xlink:href="#DejaVuSans-6e" transform="translate(254.443359 0)"/>
     <use xlink:href="#DejaVuSans-6c" transform="translate(317.822266 0)"/>
     <use xlink:href="#DejaVuSans-79" transform="translate(345.605469 0)"/>
    </g>
    <!-- 44 -->
    <g transform="translate(408.000806 137.469128) scale(0.09 -0.09)">
     <use xlink:href="#DejaVuSans-34"/>
     <use xlink:href="#DejaVuSans-34" transform="translate(63.623047 0)"/>
    </g>
   </g>
   <g id="text_3">
    <!-- HS &amp; HM -->
    <g transform="translate(198.790269 92.150307) scale(0.09 -0.09)">
     <defs>
      <path id="DejaVuSans-26" d="M 1556 2509 
Q 1272 2256 1139 2004 
Q 1006 1753 1006 1478 
Q 1006 1022 1337 719 
Q 1669 416 2169 416 
Q 2466 416 2725 514 
Q 2984 613 3213 813 
L 1556 2509 
z
M 1997 2859 
L 3584 1234 
Q 3769 1513 3872 1830 
Q 3975 2147 3994 2503 
L 4575 2503 
Q 4538 2091 4375 1687 
Q 4213 1284 3922 891 
L 4794 0 
L 4006 0 
L 3559 459 
Q 3234 181 2878 45 
Q 2522 -91 2113 -91 
Q 1359 -91 881 339 
Q 403 769 403 1441 
Q 403 1841 612 2192 
Q 822 2544 1241 2853 
Q 1091 3050 1012 3245 
Q 934 3441 934 3628 
Q 934 4134 1281 4442 
Q 1628 4750 2203 4750 
Q 2463 4750 2720 4694 
Q 2978 4638 3244 4525 
L 3244 3956 
Q 2972 4103 2725 4179 
Q 2478 4256 2266 4256 
Q 1938 4256 1733 4082 
Q 1528 3909 1528 3634 
Q 1528 3475 1620 3314 
Q 1713 3153 1997 2859 
z
" transform="scale(0.015625)"/>
     </defs>
     <use xlink:href="#DejaVuSans-48"/>
     <use xlink:href="#DejaVuSans-53" transform="translate(75.195312 0)"/>
     <use xlink:href="#DejaVuSans-20" transform="translate(138.671875 0)"/>
     <use xlink:href="#DejaVuSans-26" transform="translate(170.458984 0)"/>
     <use xlink:href="#DejaVuSans-20" transform="translate(248.4375 0)"/>
     <use xlink:href="#DejaVuSans-48" transform="translate(280.224609 0)"/>
     <use xlink:href="#DejaVuSans-4d" transform="translate(355.419922 0)"/>
    </g>
    <!-- 12 -->
    <g transform="translate(212.941363 102.228338) scale(0.09 -0.09)">
     <defs>
      <path id="DejaVuSans-31" d="M 794 531 
L 1825 531 
L 1825 4091 
L 703 3866 
L 703 4441 
L 1819 4666 
L 2450 4666 
L 2450 531 
L 3481 531 
L 3481 0 
L 794 0 
L 794 531 
z
" transform="scale(0.015625)"/>
      <path id="DejaVuSans-32" d="M 1228 531 
L 3431 531 
L 3431 0 
L 469 0 
L 469 531 
Q 828 903 1448 1529 
Q 2069 2156 2228 2338 
Q 2531 2678 2651 2914 
Q 2772 3150 2772 3378 
Q 2772 3750 2511 3984 
Q 2250 4219 1831 4219 
Q 1534 4219 1204 4116 
Q 875 4013 500 3803 
L 500 4441 
Q 881 4594 1212 4672 
Q 1544 4750 1819 4750 
Q 2544 4750 2975 4387 
Q 3406 4025 3406 3419 
Q 3406 3131 3298 2873 
Q 3191 2616 2906 2266 
Q 2828 2175 2409 1742 
Q 1991 1309 1228 531 
z
" transform="scale(0.015625)"/>
     </defs>
     <use xlink:href="#DejaVuSans-31"/>
     <use xlink:href="#DejaVuSans-32" transform="translate(63.623047 0)"/>
    </g>
   </g>
   <g id="text_4">
    <!-- HA only -->
    <g transform="translate(249.456377 493.119125) scale(0.09 -0.09)">
     <defs>
      <path id="DejaVuSans-41" d="M 2188 4044 
L 1331 1722 
L 3047 1722 
L 2188 4044 
z
M 1831 4666 
L 2547 4666 
L 4325 0 
L 3669 0 
L 3244 1197 
L 1141 1197 
L 716 0 
L 50 0 
L 1831 4666 
z
" transform="scale(0.015625)"/>
     </defs>
     <use xlink:href="#DejaVuSans-48"/>
     <use xlink:href="#DejaVuSans-41" transform="translate(75.195312 0)"/>
     <use xlink:href="#DejaVuSans-20" transform="translate(143.603516 0)"/>
     <use xlink:href="#DejaVuSans-6f" transform="translate(175.390625 0)"/>
     <use xlink:href="#DejaVuSans-6e" transform="translate(236.572266 0)"/>
     <use xlink:href="#DejaVuSans-6c" transform="translate(299.951172 0)"/>
     <use xlink:href="#DejaVuSans-79" transform="translate(327.734375 0)"/>
    </g>
    <!-- 75 -->
    <g transform="translate(261.141612 503.197156) scale(0.09 -0.09)">
     <defs>
      <path id="DejaVuSans-37" d="M 525 4666 
L 3525 4666 
L 3525 4397 
L 1831 0 
L 1172 0 
L 2766 4134 
L 525 4134 
L 525 4666 
z
" transform="scale(0.015625)"/>
      <path id="DejaVuSans-35" d="M 691 4666 
L 3169 4666 
L 3169 4134 
L 1269 4134 
L 1269 2991 
Q 1406 3038 1543 3061 
Q 1681 3084 1819 3084 
Q 2600 3084 3056 2656 
Q 3513 2228 3513 1497 
Q 3513 744 3044 326 
Q 2575 -91 1722 -91 
Q 1428 -91 1123 -41 
Q 819 9 494 109 
L 494 744 
Q 775 591 1075 516 
Q 1375 441 1709 441 
Q 2250 441 2565 725 
Q 2881 1009 2881 1497 
Q 2881 1984 2565 2268 
Q 2250 2553 1709 2553 
Q 1456 2553 1204 2497 
Q 953 2441 691 2322 
L 691 4666 
z
" transform="scale(0.015625)"/>
     </defs>
     <use xlink:href="#DejaVuSans-37"/>
     <use xlink:href="#DejaVuSans-35" transform="translate(63.623047 0)"/>
    </g>
   </g>
   <g id="text_5">
    <!-- HS &amp; HA -->
    <g transform="translate(74.842071 368.523658) scale(0.09 -0.09)">
     <use xlink:href="#DejaVuSans-48"/>
     <use xlink:href="#DejaVuSans-53" transform="translate(75.195312 0)"/>
     <use xlink:href="#DejaVuSans-20" transform="translate(138.671875 0)"/>
     <use xlink:href="#DejaVuSans-26" transform="translate(170.458984 0)"/>
     <use xlink:href="#DejaVuSans-20" transform="translate(248.4375 0)"/>
     <use xlink:href="#DejaVuSans-48" transform="translate(280.224609 0)"/>
     <use xlink:href="#DejaVuSans-41" transform="translate(355.419922 0)"/>
    </g>
    <!-- 27 -->
    <g transform="translate(88.18879 378.60169) scale(0.09 -0.09)">
     <use xlink:href="#DejaVuSans-32"/>
     <use xlink:href="#DejaVuSans-37" transform="translate(63.623047 0)"/>
    </g>
   </g>
   <g id="text_6">
    <!-- HM &amp; HA -->
    <g transform="translate(439.085058 331.532274) scale(0.09 -0.09)">
     <use xlink:href="#DejaVuSans-48"/>
     <use xlink:href="#DejaVuSans-4d" transform="translate(75.195312 0)"/>
     <use xlink:href="#DejaVuSans-20" transform="translate(161.474609 0)"/>
     <use xlink:href="#DejaVuSans-26" transform="translate(193.261719 0)"/>
     <use xlink:href="#DejaVuSans-20" transform="translate(271.240234 0)"/>
     <use xlink:href="#DejaVuSans-48" transform="translate(303.027344 0)"/>
     <use xlink:href="#DejaVuSans-41" transform="translate(378.222656 0)"/>
    </g>
    <!-- 84 -->
    <g transform="translate(453.457637 341.610305) scale(0.09 -0.09)">
     <defs>
      <path id="DejaVuSans-38" d="M 2034 2216 
Q 1584 2216 1326 1975 
Q 1069 1734 1069 1313 
Q 1069 891 1326 650 
Q 1584 409 2034 409 
Q 2484 409 2743 651 
Q 3003 894 3003 1313 
Q 3003 1734 2745 1975 
Q 2488 2216 2034 2216 
z
M 1403 2484 
Q 997 2584 770 2862 
Q 544 3141 544 3541 
Q 544 4100 942 4425 
Q 1341 4750 2034 4750 
Q 2731 4750 3128 4425 
Q 3525 4100 3525 3541 
Q 3525 3141 3298 2862 
Q 3072 2584 2669 2484 
Q 3125 2378 3379 2068 
Q 3634 1759 3634 1313 
Q 3634 634 3220 271 
Q 2806 -91 2034 -91 
Q 1263 -91 848 271 
Q 434 634 434 1313 
Q 434 1759 690 2068 
Q 947 2378 1403 2484 
z
M 1172 3481 
Q 1172 3119 1398 2916 
Q 1625 2713 2034 2713 
Q 2441 2713 2670 2916 
Q 2900 3119 2900 3481 
Q 2900 3844 2670 4047 
Q 2441 4250 2034 4250 
Q 1625 4250 1398 4047 
Q 1172 3844 1172 3481 
z
" transform="scale(0.015625)"/>
     </defs>
     <use xlink:href="#DejaVuSans-38"/>
     <use xlink:href="#DejaVuSans-34" transform="translate(63.623047 0)"/>
    </g>
   </g>
   <g id="text_7">
    <!-- HS &amp; HM &amp; HA -->
    <g transform="translate(238.803711 285.106624) scale(0.09 -0.09)">
     <use xlink:href="#DejaVuSans-48"/>
     <use xlink:href="#DejaVuSans-53" transform="translate(75.195312 0)"/>
     <use xlink:href="#DejaVuSans-20" transform="translate(138.671875 0)"/>
     <use xlink:href="#DejaVuSans-26" transform="translate(170.458984 0)"/>
     <use xlink:href="#DejaVuSans-20" transform="translate(248.4375 0)"/>
     <use xlink:href="#DejaVuSans-48" transform="translate(280.224609 0)"/>
     <use xlink:href="#DejaVuSans-4d" transform="translate(355.419922 0)"/>
     <use xlink:href="#DejaVuSans-20" transform="translate(441.699219 0)"/>
     <use xlink:href="#DejaVuSans-26" transform="translate(473.486328 0)"/>
     <use xlink:href="#DejaVuSans-20" transform="translate(551.464844 0)"/>
     <use xlink:href="#DejaVuSans-48" transform="translate(583.251953 0)"/>
     <use xlink:href="#DejaVuSans-41" transform="translate(658.447266 0)"/>
    </g>
    <!-- 496 -->
    <g transform="translate(262.923711 295.184655) scale(0.09 -0.09)">
     <defs>
      <path id="DejaVuSans-39" d="M 703 97 
L 703 672 
Q 941 559 1184 500 
Q 1428 441 1663 441 
Q 2288 441 2617 861 
Q 2947 1281 2994 2138 
Q 2813 1869 2534 1725 
Q 2256 1581 1919 1581 
Q 1219 1581 811 2004 
Q 403 2428 403 3163 
Q 403 3881 828 4315 
Q 1253 4750 1959 4750 
Q 2769 4750 3195 4129 
Q 3622 3509 3622 2328 
Q 3622 1225 3098 567 
Q 2575 -91 1691 -91 
Q 1453 -91 1209 -44 
Q 966 3 703 97 
z
M 1959 2075 
Q 2384 2075 2632 2365 
Q 2881 2656 2881 3163 
Q 2881 3666 2632 3958 
Q 2384 4250 1959 4250 
Q 1534 4250 1286 3958 
Q 1038 3666 1038 3163 
Q 1038 2656 1286 2365 
Q 1534 2075 1959 2075 
z
" transform="scale(0.015625)"/>
      <path id="DejaVuSans-36" d="M 2113 2584 
Q 1688 2584 1439 2293 
Q 1191 2003 1191 1497 
Q 1191 994 1439 701 
Q 1688 409 2113 409 
Q 2538 409 2786 701 
Q 3034 994 3034 1497 
Q 3034 2003 2786 2293 
Q 2538 2584 2113 2584 
z
M 3366 4563 
L 3366 3988 
Q 3128 4100 2886 4159 
Q 2644 4219 2406 4219 
Q 1781 4219 1451 3797 
Q 1122 3375 1075 2522 
Q 1259 2794 1537 2939 
Q 1816 3084 2150 3084 
Q 2853 3084 3261 2657 
Q 3669 2231 3669 1497 
Q 3669 778 3244 343 
Q 2819 -91 2113 -91 
Q 1303 -91 875 529 
Q 447 1150 447 2328 
Q 447 3434 972 4092 
Q 1497 4750 2381 4750 
Q 2619 4750 2861 4703 
Q 3103 4656 3366 4563 
z
" transform="scale(0.015625)"/>
     </defs>
     <use xlink:href="#DejaVuSans-34"/>
     <use xlink:href="#DejaVuSans-39" transform="translate(63.623047 0)"/>
     <use xlink:href="#DejaVuSans-36" transform="translate(127.246094 0)"/>
    </g>
   </g>
   <g id="text_8">
    <!-- HS -->
    <g transform="translate(124.111687 75.457161) scale(0.14 -0.14)">
     <defs>
      <path id="DejaVuSans-Bold-48" d="M 588 4666 
L 1791 4666 
L 1791 2888 
L 3566 2888 
L 3566 4666 
L 4769 4666 
L 4769 0 
L 3566 0 
L 3566 1978 
L 1791 1978 
L 1791 0 
L 588 0 
L 588 4666 
z
" transform="scale(0.015625)"/>
      <path id="DejaVuSans-Bold-53" d="M 3834 4519 
L 3834 3531 
Q 3450 3703 3084 3790 
Q 2719 3878 2394 3878 
Q 1963 3878 1756 3759 
Q 1550 3641 1550 3391 
Q 1550 3203 1689 3098 
Q 1828 2994 2194 2919 
L 2706 2816 
Q 3484 2659 3812 2340 
Q 4141 2022 4141 1434 
Q 4141 663 3683 286 
Q 3225 -91 2284 -91 
Q 1841 -91 1394 -6 
Q 947 78 500 244 
L 500 1259 
Q 947 1022 1364 901 
Q 1781 781 2169 781 
Q 2563 781 2772 912 
Q 2981 1044 2981 1288 
Q 2981 1506 2839 1625 
Q 2697 1744 2272 1838 
L 1806 1941 
Q 1106 2091 782 2419 
Q 459 2747 459 3303 
Q 459 4000 909 4375 
Q 1359 4750 2203 4750 
Q 2588 4750 2994 4692 
Q 3400 4634 3834 4519 
z
" transform="scale(0.015625)"/>
     </defs>
     <use xlink:href="#DejaVuSans-Bold-48"/>
     <use xlink:href="#DejaVuSans-Bold-53" transform="translate(83.691406 0)"/>
    </g>
   </g>
   <g id="text_9">
    <!-- HM -->
    <g transform="translate(397.993876 65.835567) scale(0.14 -0.14)">
     <defs>
      <path id="DejaVuSans-Bold-4d" d="M 588 4666 
L 2119 4666 
L 3181 2169 
L 4250 4666 
L 5778 4666 
L 5778 0 
L 4641 0 
L 4641 3413 
L 3566 897 
L 2803 897 
L 1728 3413 
L 1728 0 
L 588 0 
L 588 4666 
z
" transform="scale(0.015625)"/>
     </defs>
     <use xlink:href="#DejaVuSans-Bold-48"/>
     <use xlink:href="#DejaVuSans-Bold-4d" transform="translate(83.691406 0)"/>
    </g>
   </g>
   <g id="text_10">
    <!-- HA -->
    <g transform="translate(270.122 553.738085) scale(0.14 -0.14)">
     <defs>
      <path id="DejaVuSans-Bold-41" d="M 3419 850 
L 1538 850 
L 1241 0 
L 31 0 
L 1759 4666 
L 3194 4666 
L 4922 0 
L 3713 0 
L 3419 850 
z
M 1838 1716 
L 3116 1716 
L 2478 3572 
L 1838 1716 
z
" transform="scale(0.015625)"/>
     </defs>
     <use xlink:href="#DejaVuSans-Bold-48"/>
     <use xlink:href="#DejaVuSans-Bold-41" transform="translate(83.691406 0)"/>
    </g>
   </g>
   <g id="text_11">
    <!-- Pathway-Mapped KO Distribution -->
    <g transform="translate(124.701148 19.3575) scale(0.16 -0.16)">
     <defs>
      <path id="DejaVuSans-Bold-50" d="M 588 4666 
L 2584 4666 
Q 3475 4666 3951 4270 
Q 4428 3875 4428 3144 
Q 4428 2409 3951 2014 
Q 3475 1619 2584 1619 
L 1791 1619 
L 1791 0 
L 588 0 
L 588 4666 
z
M 1791 3794 
L 1791 2491 
L 2456 2491 
Q 2806 2491 2997 2661 
Q 3188 2831 3188 3144 
Q 3188 3456 2997 3625 
Q 2806 3794 2456 3794 
L 1791 3794 
z
" transform="scale(0.015625)"/>
      <path id="DejaVuSans-Bold-61" d="M 2106 1575 
Q 1756 1575 1579 1456 
Q 1403 1338 1403 1106 
Q 1403 894 1545 773 
Q 1688 653 1941 653 
Q 2256 653 2472 879 
Q 2688 1106 2688 1447 
L 2688 1575 
L 2106 1575 
z
M 3816 1997 
L 3816 0 
L 2688 0 
L 2688 519 
Q 2463 200 2181 54 
Q 1900 -91 1497 -91 
Q 953 -91 614 226 
Q 275 544 275 1050 
Q 275 1666 698 1953 
Q 1122 2241 2028 2241 
L 2688 2241 
L 2688 2328 
Q 2688 2594 2478 2717 
Q 2269 2841 1825 2841 
Q 1466 2841 1156 2769 
Q 847 2697 581 2553 
L 581 3406 
Q 941 3494 1303 3539 
Q 1666 3584 2028 3584 
Q 2975 3584 3395 3211 
Q 3816 2838 3816 1997 
z
" transform="scale(0.015625)"/>
      <path id="DejaVuSans-Bold-74" d="M 1759 4494 
L 1759 3500 
L 2913 3500 
L 2913 2700 
L 1759 2700 
L 1759 1216 
Q 1759 972 1856 886 
Q 1953 800 2241 800 
L 2816 800 
L 2816 0 
L 1856 0 
Q 1194 0 917 276 
Q 641 553 641 1216 
L 641 2700 
L 84 2700 
L 84 3500 
L 641 3500 
L 641 4494 
L 1759 4494 
z
" transform="scale(0.015625)"/>
      <path id="DejaVuSans-Bold-68" d="M 4056 2131 
L 4056 0 
L 2931 0 
L 2931 347 
L 2931 1625 
Q 2931 2084 2911 2256 
Q 2891 2428 2841 2509 
Q 2775 2619 2662 2680 
Q 2550 2741 2406 2741 
Q 2056 2741 1856 2470 
Q 1656 2200 1656 1722 
L 1656 0 
L 538 0 
L 538 4863 
L 1656 4863 
L 1656 2988 
Q 1909 3294 2193 3439 
Q 2478 3584 2822 3584 
Q 3428 3584 3742 3212 
Q 4056 2841 4056 2131 
z
" transform="scale(0.015625)"/>
      <path id="DejaVuSans-Bold-77" d="M 225 3500 
L 1313 3500 
L 1900 1088 
L 2491 3500 
L 3425 3500 
L 4013 1113 
L 4603 3500 
L 5691 3500 
L 4769 0 
L 3547 0 
L 2956 2406 
L 2369 0 
L 1147 0 
L 225 3500 
z
" transform="scale(0.015625)"/>
      <path id="DejaVuSans-Bold-79" d="M 78 3500 
L 1197 3500 
L 2138 1125 
L 2938 3500 
L 4056 3500 
L 2584 -331 
Q 2363 -916 2067 -1148 
Q 1772 -1381 1288 -1381 
L 641 -1381 
L 641 -647 
L 991 -647 
Q 1275 -647 1404 -556 
Q 1534 -466 1606 -231 
L 1638 -134 
L 78 3500 
z
" transform="scale(0.015625)"/>
      <path id="DejaVuSans-Bold-2d" d="M 347 2297 
L 2309 2297 
L 2309 1388 
L 347 1388 
L 347 2297 
z
" transform="scale(0.015625)"/>
      <path id="DejaVuSans-Bold-70" d="M 1656 506 
L 1656 -1331 
L 538 -1331 
L 538 3500 
L 1656 3500 
L 1656 2988 
Q 1888 3294 2169 3439 
Q 2450 3584 2816 3584 
Q 3463 3584 3878 3070 
Q 4294 2556 4294 1747 
Q 4294 938 3878 423 
Q 3463 -91 2816 -91 
Q 2450 -91 2169 54 
Q 1888 200 1656 506 
z
M 2400 2772 
Q 2041 2772 1848 2508 
Q 1656 2244 1656 1747 
Q 1656 1250 1848 986 
Q 2041 722 2400 722 
Q 2759 722 2948 984 
Q 3138 1247 3138 1747 
Q 3138 2247 2948 2509 
Q 2759 2772 2400 2772 
z
" transform="scale(0.015625)"/>
      <path id="DejaVuSans-Bold-65" d="M 4031 1759 
L 4031 1441 
L 1416 1441 
Q 1456 1047 1700 850 
Q 1944 653 2381 653 
Q 2734 653 3104 758 
Q 3475 863 3866 1075 
L 3866 213 
Q 3469 63 3072 -14 
Q 2675 -91 2278 -91 
Q 1328 -91 801 392 
Q 275 875 275 1747 
Q 275 2603 792 3093 
Q 1309 3584 2216 3584 
Q 3041 3584 3536 3087 
Q 4031 2591 4031 1759 
z
M 2881 2131 
Q 2881 2450 2695 2645 
Q 2509 2841 2209 2841 
Q 1884 2841 1681 2658 
Q 1478 2475 1428 2131 
L 2881 2131 
z
" transform="scale(0.015625)"/>
      <path id="DejaVuSans-Bold-64" d="M 2919 2988 
L 2919 4863 
L 4044 4863 
L 4044 0 
L 2919 0 
L 2919 506 
Q 2688 197 2409 53 
Q 2131 -91 1766 -91 
Q 1119 -91 703 423 
Q 288 938 288 1747 
Q 288 2556 703 3070 
Q 1119 3584 1766 3584 
Q 2128 3584 2408 3439 
Q 2688 3294 2919 2988 
z
M 2181 722 
Q 2541 722 2730 984 
Q 2919 1247 2919 1747 
Q 2919 2247 2730 2509 
Q 2541 2772 2181 2772 
Q 1825 2772 1636 2509 
Q 1447 2247 1447 1747 
Q 1447 1247 1636 984 
Q 1825 722 2181 722 
z
" transform="scale(0.015625)"/>
      <path id="DejaVuSans-Bold-20" transform="scale(0.015625)"/>
      <path id="DejaVuSans-Bold-4b" d="M 588 4666 
L 1791 4666 
L 1791 2963 
L 3525 4666 
L 4922 4666 
L 2675 2456 
L 5153 0 
L 3647 0 
L 1791 1838 
L 1791 0 
L 588 0 
L 588 4666 
z
" transform="scale(0.015625)"/>
      <path id="DejaVuSans-Bold-4f" d="M 2719 3878 
Q 2169 3878 1866 3472 
Q 1563 3066 1563 2328 
Q 1563 1594 1866 1187 
Q 2169 781 2719 781 
Q 3272 781 3575 1187 
Q 3878 1594 3878 2328 
Q 3878 3066 3575 3472 
Q 3272 3878 2719 3878 
z
M 2719 4750 
Q 3844 4750 4481 4106 
Q 5119 3463 5119 2328 
Q 5119 1197 4481 553 
Q 3844 -91 2719 -91 
Q 1597 -91 958 553 
Q 319 1197 319 2328 
Q 319 3463 958 4106 
Q 1597 4750 2719 4750 
z
" transform="scale(0.015625)"/>
      <path id="DejaVuSans-Bold-44" d="M 1791 3756 
L 1791 909 
L 2222 909 
Q 2959 909 3348 1275 
Q 3738 1641 3738 2338 
Q 3738 3031 3350 3393 
Q 2963 3756 2222 3756 
L 1791 3756 
z
M 588 4666 
L 1856 4666 
Q 2919 4666 3439 4514 
Q 3959 4363 4331 4000 
Q 4659 3684 4818 3271 
Q 4978 2859 4978 2338 
Q 4978 1809 4818 1395 
Q 4659 981 4331 666 
Q 3956 303 3431 151 
Q 2906 0 1856 0 
L 588 0 
L 588 4666 
z
" transform="scale(0.015625)"/>
      <path id="DejaVuSans-Bold-69" d="M 538 3500 
L 1656 3500 
L 1656 0 
L 538 0 
L 538 3500 
z
M 538 4863 
L 1656 4863 
L 1656 3950 
L 538 3950 
L 538 4863 
z
" transform="scale(0.015625)"/>
      <path id="DejaVuSans-Bold-73" d="M 3272 3391 
L 3272 2541 
Q 2913 2691 2578 2766 
Q 2244 2841 1947 2841 
Q 1628 2841 1473 2761 
Q 1319 2681 1319 2516 
Q 1319 2381 1436 2309 
Q 1553 2238 1856 2203 
L 2053 2175 
Q 2913 2066 3209 1816 
Q 3506 1566 3506 1031 
Q 3506 472 3093 190 
Q 2681 -91 1863 -91 
Q 1516 -91 1145 -36 
Q 775 19 384 128 
L 384 978 
Q 719 816 1070 734 
Q 1422 653 1784 653 
Q 2113 653 2278 743 
Q 2444 834 2444 1013 
Q 2444 1163 2330 1236 
Q 2216 1309 1875 1350 
L 1678 1375 
Q 931 1469 631 1722 
Q 331 1975 331 2491 
Q 331 3047 712 3315 
Q 1094 3584 1881 3584 
Q 2191 3584 2531 3537 
Q 2872 3491 3272 3391 
z
" transform="scale(0.015625)"/>
      <path id="DejaVuSans-Bold-72" d="M 3138 2547 
Q 2991 2616 2845 2648 
Q 2700 2681 2553 2681 
Q 2122 2681 1889 2404 
Q 1656 2128 1656 1613 
L 1656 0 
L 538 0 
L 538 3500 
L 1656 3500 
L 1656 2925 
Q 1872 3269 2151 3426 
Q 2431 3584 2822 3584 
Q 2878 3584 2943 3579 
Q 3009 3575 3134 3559 
L 3138 2547 
z
" transform="scale(0.015625)"/>
      <path id="DejaVuSans-Bold-62" d="M 2400 722 
Q 2759 722 2948 984 
Q 3138 1247 3138 1747 
Q 3138 2247 2948 2509 
Q 2759 2772 2400 2772 
Q 2041 2772 1848 2508 
Q 1656 2244 1656 1747 
Q 1656 1250 1848 986 
Q 2041 722 2400 722 
z
M 1656 2988 
Q 1888 3294 2169 3439 
Q 2450 3584 2816 3584 
Q 3463 3584 3878 3070 
Q 4294 2556 4294 1747 
Q 4294 938 3878 423 
Q 3463 -91 2816 -91 
Q 2450 -91 2169 54 
Q 1888 200 1656 506 
L 1656 0 
L 538 0 
L 538 4863 
L 1656 4863 
L 1656 2988 
z
" transform="scale(0.015625)"/>
      <path id="DejaVuSans-Bold-75" d="M 500 1363 
L 500 3500 
L 1625 3500 
L 1625 3150 
Q 1625 2866 1622 2436 
Q 1619 2006 1619 1863 
Q 1619 1441 1641 1255 
Q 1663 1069 1716 984 
Q 1784 875 1895 815 
Q 2006 756 2150 756 
Q 2500 756 2700 1025 
Q 2900 1294 2900 1772 
L 2900 3500 
L 4019 3500 
L 4019 0 
L 2900 0 
L 2900 506 
Q 2647 200 2364 54 
Q 2081 -91 1741 -91 
Q 1134 -91 817 281 
Q 500 653 500 1363 
z
" transform="scale(0.015625)"/>
      <path id="DejaVuSans-Bold-6f" d="M 2203 2784 
Q 1831 2784 1636 2517 
Q 1441 2250 1441 1747 
Q 1441 1244 1636 976 
Q 1831 709 2203 709 
Q 2569 709 2762 976 
Q 2956 1244 2956 1747 
Q 2956 2250 2762 2517 
Q 2569 2784 2203 2784 
z
M 2203 3584 
Q 3106 3584 3614 3096 
Q 4122 2609 4122 1747 
Q 4122 884 3614 396 
Q 3106 -91 2203 -91 
Q 1297 -91 786 396 
Q 275 884 275 1747 
Q 275 2609 786 3096 
Q 1297 3584 2203 3584 
z
" transform="scale(0.015625)"/>
      <path id="DejaVuSans-Bold-6e" d="M 4056 2131 
L 4056 0 
L 2931 0 
L 2931 347 
L 2931 1631 
Q 2931 2084 2911 2256 
Q 2891 2428 2841 2509 
Q 2775 2619 2662 2680 
Q 2550 2741 2406 2741 
Q 2056 2741 1856 2470 
Q 1656 2200 1656 1722 
L 1656 0 
L 538 0 
L 538 3500 
L 1656 3500 
L 1656 2988 
Q 1909 3294 2193 3439 
Q 2478 3584 2822 3584 
Q 3428 3584 3742 3212 
Q 4056 2841 4056 2131 
z
" transform="scale(0.015625)"/>
     </defs>
     <use xlink:href="#DejaVuSans-Bold-50"/>
     <use xlink:href="#DejaVuSans-Bold-61" transform="translate(70.666016 0)"/>
     <use xlink:href="#DejaVuSans-Bold-74" transform="translate(138.146484 0)"/>
     <use xlink:href="#DejaVuSans-Bold-68" transform="translate(185.949219 0)"/>
     <use xlink:href="#DejaVuSans-Bold-77" transform="translate(257.140625 0)"/>
     <use xlink:href="#DejaVuSans-Bold-61" transform="translate(349.523438 0)"/>
     <use xlink:href="#DejaVuSans-Bold-79" transform="translate(413.878906 0)"/>
     <use xlink:href="#DejaVuSans-Bold-2d" transform="translate(479.064453 0)"/>
     <use xlink:href="#DejaVuSans-Bold-4d" transform="translate(520.568359 0)"/>
     <use xlink:href="#DejaVuSans-Bold-61" transform="translate(620.080078 0)"/>
     <use xlink:href="#DejaVuSans-Bold-70" transform="translate(687.560547 0)"/>
     <use xlink:href="#DejaVuSans-Bold-70" transform="translate(759.142578 0)"/>
     <use xlink:href="#DejaVuSans-Bold-65" transform="translate(830.724609 0)"/>
     <use xlink:href="#DejaVuSans-Bold-64" transform="translate(898.546875 0)"/>
     <use xlink:href="#DejaVuSans-Bold-20" transform="translate(970.128906 0)"/>
     <use xlink:href="#DejaVuSans-Bold-4b" transform="translate(1004.943359 0)"/>
     <use xlink:href="#DejaVuSans-Bold-4f" transform="translate(1077.933594 0)"/>
     <use xlink:href="#DejaVuSans-Bold-20" transform="translate(1162.943359 0)"/>
     <use xlink:href="#DejaVuSans-Bold-44" transform="translate(1197.757812 0)"/>
     <use xlink:href="#DejaVuSans-Bold-69" transform="translate(1280.765625 0)"/>
     <use xlink:href="#DejaVuSans-Bold-73" transform="translate(1315.042969 0)"/>
     <use xlink:href="#DejaVuSans-Bold-74" transform="translate(1374.564453 0)"/>
     <use xlink:href="#DejaVuSans-Bold-72" transform="translate(1422.367188 0)"/>
     <use xlink:href="#DejaVuSans-Bold-69" transform="translate(1471.683594 0)"/>
     <use xlink:href="#DejaVuSans-Bold-62" transform="translate(1505.960938 0)"/>
     <use xlink:href="#DejaVuSans-Bold-75" transform="translate(1577.542969 0)"/>
     <use xlink:href="#DejaVuSans-Bold-74" transform="translate(1648.734375 0)"/>
     <use xlink:href="#DejaVuSans-Bold-69" transform="translate(1696.537109 0)"/>
     <use xlink:href="#DejaVuSans-Bold-6f" transform="translate(1730.814453 0)"/>
     <use xlink:href="#DejaVuSans-Bold-6e" transform="translate(1799.515625 0)"/>
    </g>
   </g>
  </g>
 </g>
 <defs>
  <clipPath id="p506268430c">
   <rect x="7.2" y="25.3575" width="534.314797" height="536.88"/>
  </clipPath>
 </defs>
</svg>
