<?xml version="1.0" encoding="utf-8" standalone="no"?>
<!DOCTYPE svg PUBLIC "-//W3C//DTD SVG 1.1//EN"
  "http://www.w3.org/Graphics/SVG/1.1/DTD/svg11.dtd">
<svg xmlns:xlink="http://www.w3.org/1999/xlink" width="539.902824pt" height="569.4375pt" viewBox="0 0 539.902824 569.4375" xmlns="http://www.w3.org/2000/svg" version="1.1">
 <metadata>
  <rdf:RDF xmlns:dc="http://purl.org/dc/elements/1.1/" xmlns:cc="http://creativecommons.org/ns#" xmlns:rdf="http://www.w3.org/1999/02/22-rdf-syntax-ns#">
   <cc:Work>
    <dc:type rdf:resource="http://purl.org/dc/dcmitype/StillImage"/>
    <dc:date>2026-02-02T20:05:56.255844</dc:date>
    <dc:format>image/svg+xml</dc:format>
    <dc:creator>
     <cc:Agent>
      <dc:title>Matplotlib v3.10.6, https://matplotlib.org/</dc:title>
     </cc:Agent>
    </dc:creator>
   </cc:Work>
  </rdf:RDF>
 </metadata>
 <defs>
  <style type="text/css">*{stroke-linejoin: round; stroke-linecap: butt}</style>
 </defs>
 <g id="figure_1">
  <g id="patch_1">
   <path d="M 0 569.4375 
L 539.902824 569.4375 
L 539.902824 0 
L 0 0 
z
" style="fill: #ffffff"/>
  </g>
  <g id="axes_1">
   <g id="patch_2">
    <path d="M 238.906575 122.988005 
C 226.089622 110.595639 210.537811 101.387233 193.509251 96.10773 
C 176.48069 90.828226 158.447298 89.623937 140.867937 92.592286 
C 123.288576 95.560635 106.650428 102.61936 92.299485 113.197425 
C 77.948542 123.77549 66.282515 137.579742 58.245161 153.493446 
C 50.207808 169.40715 46.021869 186.989285 46.025978 204.817493 
C 46.030087 222.645702 50.224131 240.225905 58.26882 256.135902 
C 66.313509 272.045899 77.985899 285.844772 92.341717 296.41622 
C 106.697535 306.987668 123.338935 314.038722 140.919662 316.998967 
C 147.22937 298.468439 156.96885 281.289093 169.629047 266.358845 
C 182.289244 251.428597 197.645676 239.012181 214.895705 229.758566 
C 211.558057 211.26071 211.963256 192.279999 216.087285 173.941435 
C 220.211314 155.60287 227.971053 138.276069 238.906575 122.988005 
" clip-path="url(#pa6f2346854)" style="fill: #ff8080; opacity: 0.65"/>
   </g>
   <g id="patch_3">
    <path d="M 238.906575 122.988005 
C 250.750638 134.43971 259.967533 148.32828 265.918333 163.690941 
C 271.869133 179.053602 274.413079 195.52697 273.373822 211.96909 
C 308.577888 208.499071 343.93709 217.096887 373.617353 236.343945 
C 403.297617 255.591002 425.571579 284.367142 436.764158 317.924458 
C 453.116871 305.85575 466.660147 290.383769 476.458238 272.577524 
C 486.256328 254.771279 492.078252 235.050535 493.521754 214.777863 
C 494.965255 194.505191 491.996306 174.158499 484.820039 155.143606 
C 477.643773 136.128714 466.429363 118.893879 451.95165 104.629912 
C 437.473937 90.365945 420.074218 79.409105 400.954698 72.516436 
C 381.835178 65.623768 361.44658 62.957758 341.197619 64.702611 
C 320.948658 66.447464 301.316683 72.562046 283.658133 82.623881 
C 265.999582 92.685716 250.730738 106.457605 238.906575 122.988005 
" clip-path="url(#pa6f2346854)" style="fill: #80c080; opacity: 0.65"/>
   </g>
   <g id="patch_4">
    <path d="M 238.906575 122.988005 
C 227.971053 138.276069 220.211314 155.60287 216.087285 173.941435 
C 211.963256 192.279999 211.558057 211.26071 214.895705 229.758566 
C 223.938605 224.907588 233.437864 220.960131 243.255513 217.97353 
C 253.073163 214.986928 263.16144 212.975711 273.373822 211.96909 
C 274.413079 195.52697 271.869133 179.053602 265.918333 163.690941 
C 259.967533 148.32828 250.750638 134.43971 238.906575 122.988005 
" clip-path="url(#pa6f2346854)" style="fill: #c0a060; opacity: 0.65"/>
   </g>
   <g id="patch_5">
    <path d="M 140.919662 316.998967 
C 132.933486 340.452995 130.644955 365.474859 134.243951 389.988481 
C 137.842948 414.502103 147.227103 437.810228 161.617807 457.978967 
C 176.008512 478.147707 194.996444 494.60339 217.006162 505.980679 
C 239.015881 517.357969 263.421352 523.333254 288.197639 523.410761 
C 312.973927 523.488269 337.416305 517.665795 359.496775 506.426433 
C 381.577246 495.187071 400.667761 478.850508 415.184371 458.7722 
C 429.70098 438.693891 439.23078 415.444934 442.983076 390.95431 
C 446.735372 366.463685 444.603437 341.427992 436.764158 317.924458 
C 421.766065 328.993422 404.715486 336.970238 386.606587 341.389802 
C 368.497688 345.809366 349.689401 346.584078 331.278379 343.668769 
C 312.867356 340.75346 295.21852 334.205912 279.360916 324.407893 
C 263.503312 314.609874 249.751252 301.755587 238.906575 286.594527 
C 226.095993 298.980734 210.553181 308.18623 193.534301 313.467032 
C 176.515421 318.747835 158.491651 319.957741 140.919662 316.998967 
" clip-path="url(#pa6f2346854)" style="fill: #8080ff; opacity: 0.65"/>
   </g>
   <g id="patch_6">
    <path d="M 140.919662 316.998967 
C 158.491651 319.957741 176.515421 318.747835 193.534301 313.467032 
C 210.553181 308.18623 226.095993 298.980734 238.906575 286.594527 
C 232.868726 278.1535 227.783933 269.069885 223.74519 259.509806 
C 219.706448 249.949727 216.738526 239.97182 214.895705 229.758566 
C 197.645676 239.012181 182.289244 251.428597 169.629047 266.358845 
C 156.96885 281.289093 147.22937 298.468439 140.919662 316.998967 
" clip-path="url(#pa6f2346854)" style="fill: #c080c0; opacity: 0.65"/>
   </g>
   <g id="patch_7">
    <path d="M 273.373822 211.96909 
C 272.487107 225.99785 269.008446 239.741611 263.114361 252.502964 
C 257.220275 265.264317 249.012177 276.823693 238.906575 286.594527 
C 249.751252 301.755587 263.503312 314.609874 279.360916 324.407893 
C 295.21852 334.205912 312.867356 340.75346 331.278379 343.668769 
C 349.689401 346.584078 368.497688 345.809366 386.606587 341.389802 
C 404.715486 336.970238 421.766065 328.993422 436.764158 317.924458 
C 425.571579 284.367142 403.297617 255.591002 373.617353 236.343945 
C 343.93709 217.096887 308.577888 208.499071 273.373822 211.96909 
" clip-path="url(#pa6f2346854)" style="fill: #80b0d0; opacity: 0.65"/>
   </g>
   <g id="patch_8">
    <path d="M 214.895705 229.758566 
C 216.738526 239.97182 219.706448 249.949727 223.74519 259.509806 
C 227.783933 269.069885 232.868726 278.1535 238.906575 286.594527 
C 249.012177 276.823693 257.220275 265.264317 263.114361 252.502964 
C 269.008446 239.741611 272.487107 225.99785 273.373822 211.96909 
C 263.16144 212.975711 253.073163 214.986928 243.255513 217.97353 
C 233.437864 220.960131 223.938605 224.907588 214.895705 229.758566 
" clip-path="url(#pa6f2346854)" style="fill: #a898a8; opacity: 0.65"/>
   </g>
   <g id="text_1">
    <!-- HS only -->
    <g transform="translate(79.906089 166.141264) scale(0.09 -0.09)">
     <defs>
      <path id="DejaVuSans-48" d="M 628 4666 
L 1259 4666 
L 1259 2753 
L 3553 2753 
L 3553 4666 
L 4184 4666 
L 4184 0 
L 3553 0 
L 3553 2222 
L 1259 2222 
L 1259 0 
L 628 0 
L 628 4666 
z
" transform="scale(0.015625)"/>
      <path id="DejaVuSans-53" d="M 3425 4513 
L 3425 3897 
Q 3066 4069 2747 4153 
Q 2428 4238 2131 4238 
Q 1616 4238 1336 4038 
Q 1056 3838 1056 3469 
Q 1056 3159 1242 3001 
Q 1428 2844 1947 2747 
L 2328 2669 
Q 3034 2534 3370 2195 
Q 3706 1856 3706 1288 
Q 3706 609 3251 259 
Q 2797 -91 1919 -91 
Q 1588 -91 1214 -16 
Q 841 59 441 206 
L 441 856 
Q 825 641 1194 531 
Q 1563 422 1919 422 
Q 2459 422 2753 634 
Q 3047 847 3047 1241 
Q 3047 1584 2836 1778 
Q 2625 1972 2144 2069 
L 1759 2144 
Q 1053 2284 737 2584 
Q 422 2884 422 3419 
Q 422 4038 858 4394 
Q 1294 4750 2059 4750 
Q 2388 4750 2728 4690 
Q 3069 4631 3425 4513 
z
" transform="scale(0.015625)"/>
      <path id="DejaVuSans-20" transform="scale(0.015625)"/>
      <path id="DejaVuSans-6f" d="M 1959 3097 
Q 1497 3097 1228 2736 
Q 959 2375 959 1747 
Q 959 1119 1226 758 
Q 1494 397 1959 397 
Q 2419 397 2687 759 
Q 2956 1122 2956 1747 
Q 2956 2369 2687 2733 
Q 2419 3097 1959 3097 
z
M 1959 3584 
Q 2709 3584 3137 3096 
Q 3566 2609 3566 1747 
Q 3566 888 3137 398 
Q 2709 -91 1959 -91 
Q 1206 -91 779 398 
Q 353 888 353 1747 
Q 353 2609 779 3096 
Q 1206 3584 1959 3584 
z
" transform="scale(0.015625)"/>
      <path id="DejaVuSans-6e" d="M 3513 2113 
L 3513 0 
L 2938 0 
L 2938 2094 
Q 2938 2591 2744 2837 
Q 2550 3084 2163 3084 
Q 1697 3084 1428 2787 
Q 1159 2491 1159 1978 
L 1159 0 
L 581 0 
L 581 3500 
L 1159 3500 
L 1159 2956 
Q 1366 3272 1645 3428 
Q 1925 3584 2291 3584 
Q 2894 3584 3203 3211 
Q 3513 2838 3513 2113 
z
" transform="scale(0.015625)"/>
      <path id="DejaVuSans-6c" d="M 603 4863 
L 1178 4863 
L 1178 0 
L 603 0 
L 603 4863 
z
" transform="scale(0.015625)"/>
      <path id="DejaVuSans-79" d="M 2059 -325 
Q 1816 -950 1584 -1140 
Q 1353 -1331 966 -1331 
L 506 -1331 
L 506 -850 
L 844 -850 
Q 1081 -850 1212 -737 
Q 1344 -625 1503 -206 
L 1606 56 
L 191 3500 
L 800 3500 
L 1894 763 
L 2988 3500 
L 3597 3500 
L 2059 -325 
z
" transform="scale(0.015625)"/>
     </defs>
     <use xlink:href="#DejaVuSans-48"/>
     <use xlink:href="#DejaVuSans-53" transform="translate(75.195312 0)"/>
     <use xlink:href="#DejaVuSans-20" transform="translate(138.671875 0)"/>
     <use xlink:href="#DejaVuSans-6f" transform="translate(170.458984 0)"/>
     <use xlink:href="#DejaVuSans-6e" transform="translate(231.640625 0)"/>
     <use xlink:href="#DejaVuSans-6c" transform="translate(295.019531 0)"/>
     <use xlink:href="#DejaVuSans-79" transform="translate(322.802734 0)"/>
    </g>
    <!-- 1021 -->
    <g transform="translate(85.643589 176.219296) scale(0.09 -0.09)">
     <defs>
      <path id="DejaVuSans-31" d="M 794 531 
L 1825 531 
L 1825 4091 
L 703 3866 
L 703 4441 
L 1819 4666 
L 2450 4666 
L 2450 531 
L 3481 531 
L 3481 0 
L 794 0 
L 794 531 
z
" transform="scale(0.015625)"/>
      <path id="DejaVuSans-30" d="M 2034 4250 
Q 1547 4250 1301 3770 
Q 1056 3291 1056 2328 
Q 1056 1369 1301 889 
Q 1547 409 2034 409 
Q 2525 409 2770 889 
Q 3016 1369 3016 2328 
Q 3016 3291 2770 3770 
Q 2525 4250 2034 4250 
z
M 2034 4750 
Q 2819 4750 3233 4129 
Q 3647 3509 3647 2328 
Q 3647 1150 3233 529 
Q 2819 -91 2034 -91 
Q 1250 -91 836 529 
Q 422 1150 422 2328 
Q 422 3509 836 4129 
Q 1250 4750 2034 4750 
z
" transform="scale(0.015625)"/>
      <path id="DejaVuSans-32" d="M 1228 531 
L 3431 531 
L 3431 0 
L 469 0 
L 469 531 
Q 828 903 1448 1529 
Q 2069 2156 2228 2338 
Q 2531 2678 2651 2914 
Q 2772 3150 2772 3378 
Q 2772 3750 2511 3984 
Q 2250 4219 1831 4219 
Q 1534 4219 1204 4116 
Q 875 4013 500 3803 
L 500 4441 
Q 881 4594 1212 4672 
Q 1544 4750 1819 4750 
Q 2544 4750 2975 4387 
Q 3406 4025 3406 3419 
Q 3406 3131 3298 2873 
Q 3191 2616 2906 2266 
Q 2828 2175 2409 1742 
Q 1991 1309 1228 531 
z
" transform="scale(0.015625)"/>
     </defs>
     <use xlink:href="#DejaVuSans-31"/>
     <use xlink:href="#DejaVuSans-30" transform="translate(63.623047 0)"/>
     <use xlink:href="#DejaVuSans-32" transform="translate(127.246094 0)"/>
     <use xlink:href="#DejaVuSans-31" transform="translate(190.869141 0)"/>
    </g>
   </g>
   <g id="text_2">
    <!-- HM only -->
    <g transform="translate(378.9515 134.629689) scale(0.09 -0.09)">
     <defs>
      <path id="DejaVuSans-4d" d="M 628 4666 
L 1569 4666 
L 2759 1491 
L 3956 4666 
L 4897 4666 
L 4897 0 
L 4281 0 
L 4281 4097 
L 3078 897 
L 2444 897 
L 1241 4097 
L 1241 0 
L 628 0 
L 628 4666 
z
" transform="scale(0.015625)"/>
     </defs>
     <use xlink:href="#DejaVuSans-48"/>
     <use xlink:href="#DejaVuSans-4d" transform="translate(75.195312 0)"/>
     <use xlink:href="#DejaVuSans-20" transform="translate(161.474609 0)"/>
     <use xlink:href="#DejaVuSans-6f" transform="translate(193.261719 0)"/>
     <use xlink:href="#DejaVuSans-6e" transform="translate(254.443359 0)"/>
     <use xlink:href="#DejaVuSans-6c" transform="translate(317.822266 0)"/>
     <use xlink:href="#DejaVuSans-79" transform="translate(345.605469 0)"/>
    </g>
    <!-- 1282 -->
    <g transform="translate(385.714859 144.707721) scale(0.09 -0.09)">
     <defs>
      <path id="DejaVuSans-38" d="M 2034 2216 
Q 1584 2216 1326 1975 
Q 1069 1734 1069 1313 
Q 1069 891 1326 650 
Q 1584 409 2034 409 
Q 2484 409 2743 651 
Q 3003 894 3003 1313 
Q 3003 1734 2745 1975 
Q 2488 2216 2034 2216 
z
M 1403 2484 
Q 997 2584 770 2862 
Q 544 3141 544 3541 
Q 544 4100 942 4425 
Q 1341 4750 2034 4750 
Q 2731 4750 3128 4425 
Q 3525 4100 3525 3541 
Q 3525 3141 3298 2862 
Q 3072 2584 2669 2484 
Q 3125 2378 3379 2068 
Q 3634 1759 3634 1313 
Q 3634 634 3220 271 
Q 2806 -91 2034 -91 
Q 1263 -91 848 271 
Q 434 634 434 1313 
Q 434 1759 690 2068 
Q 947 2378 1403 2484 
z
M 1172 3481 
Q 1172 3119 1398 2916 
Q 1625 2713 2034 2713 
Q 2441 2713 2670 2916 
Q 2900 3119 2900 3481 
Q 2900 3844 2670 4047 
Q 2441 4250 2034 4250 
Q 1625 4250 1398 4047 
Q 1172 3844 1172 3481 
z
" transform="scale(0.015625)"/>
     </defs>
     <use xlink:href="#DejaVuSans-31"/>
     <use xlink:href="#DejaVuSans-32" transform="translate(63.623047 0)"/>
     <use xlink:href="#DejaVuSans-38" transform="translate(127.246094 0)"/>
     <use xlink:href="#DejaVuSans-32" transform="translate(190.869141 0)"/>
    </g>
   </g>
   <g id="text_3">
    <!-- HS &amp; HM -->
    <g transform="translate(223.131026 167.741094) scale(0.09 -0.09)">
     <defs>
      <path id="DejaVuSans-26" d="M 1556 2509 
Q 1272 2256 1139 2004 
Q 1006 1753 1006 1478 
Q 1006 1022 1337 719 
Q 1669 416 2169 416 
Q 2466 416 2725 514 
Q 2984 613 3213 813 
L 1556 2509 
z
M 1997 2859 
L 3584 1234 
Q 3769 1513 3872 1830 
Q 3975 2147 3994 2503 
L 4575 2503 
Q 4538 2091 4375 1687 
Q 4213 1284 3922 891 
L 4794 0 
L 4006 0 
L 3559 459 
Q 3234 181 2878 45 
Q 2522 -91 2113 -91 
Q 1359 -91 881 339 
Q 403 769 403 1441 
Q 403 1841 612 2192 
Q 822 2544 1241 2853 
Q 1091 3050 1012 3245 
Q 934 3441 934 3628 
Q 934 4134 1281 4442 
Q 1628 4750 2203 4750 
Q 2463 4750 2720 4694 
Q 2978 4638 3244 4525 
L 3244 3956 
Q 2972 4103 2725 4179 
Q 2478 4256 2266 4256 
Q 1938 4256 1733 4082 
Q 1528 3909 1528 3634 
Q 1528 3475 1620 3314 
Q 1713 3153 1997 2859 
z
" transform="scale(0.015625)"/>
     </defs>
     <use xlink:href="#DejaVuSans-48"/>
     <use xlink:href="#DejaVuSans-53" transform="translate(75.195312 0)"/>
     <use xlink:href="#DejaVuSans-20" transform="translate(138.671875 0)"/>
     <use xlink:href="#DejaVuSans-26" transform="translate(170.458984 0)"/>
     <use xlink:href="#DejaVuSans-20" transform="translate(248.4375 0)"/>
     <use xlink:href="#DejaVuSans-48" transform="translate(280.224609 0)"/>
     <use xlink:href="#DejaVuSans-4d" transform="translate(355.419922 0)"/>
    </g>
    <!-- 30 -->
    <g transform="translate(237.28212 177.819125) scale(0.09 -0.09)">
     <defs>
      <path id="DejaVuSans-33" d="M 2597 2516 
Q 3050 2419 3304 2112 
Q 3559 1806 3559 1356 
Q 3559 666 3084 287 
Q 2609 -91 1734 -91 
Q 1441 -91 1130 -33 
Q 819 25 488 141 
L 488 750 
Q 750 597 1062 519 
Q 1375 441 1716 441 
Q 2309 441 2620 675 
Q 2931 909 2931 1356 
Q 2931 1769 2642 2001 
Q 2353 2234 1838 2234 
L 1294 2234 
L 1294 2753 
L 1863 2753 
Q 2328 2753 2575 2939 
Q 2822 3125 2822 3475 
Q 2822 3834 2567 4026 
Q 2313 4219 1838 4219 
Q 1578 4219 1281 4162 
Q 984 4106 628 3988 
L 628 4550 
Q 988 4650 1302 4700 
Q 1616 4750 1894 4750 
Q 2613 4750 3031 4423 
Q 3450 4097 3450 3541 
Q 3450 3153 3228 2886 
Q 3006 2619 2597 2516 
z
" transform="scale(0.015625)"/>
     </defs>
     <use xlink:href="#DejaVuSans-33"/>
     <use xlink:href="#DejaVuSans-30" transform="translate(63.623047 0)"/>
    </g>
   </g>
   <g id="text_4">
    <!-- HA only -->
    <g transform="translate(267.580951 454.305457) scale(0.09 -0.09)">
     <defs>
      <path id="DejaVuSans-41" d="M 2188 4044 
L 1331 1722 
L 3047 1722 
L 2188 4044 
z
M 1831 4666 
L 2547 4666 
L 4325 0 
L 3669 0 
L 3244 1197 
L 1141 1197 
L 716 0 
L 50 0 
L 1831 4666 
z
" transform="scale(0.015625)"/>
     </defs>
     <use xlink:href="#DejaVuSans-48"/>
     <use xlink:href="#DejaVuSans-41" transform="translate(75.195312 0)"/>
     <use xlink:href="#DejaVuSans-20" transform="translate(143.603516 0)"/>
     <use xlink:href="#DejaVuSans-6f" transform="translate(175.390625 0)"/>
     <use xlink:href="#DejaVuSans-6e" transform="translate(236.572266 0)"/>
     <use xlink:href="#DejaVuSans-6c" transform="translate(299.951172 0)"/>
     <use xlink:href="#DejaVuSans-79" transform="translate(327.734375 0)"/>
    </g>
    <!-- 1723 -->
    <g transform="translate(273.539935 464.383488) scale(0.09 -0.09)">
     <defs>
      <path id="DejaVuSans-37" d="M 525 4666 
L 3525 4666 
L 3525 4397 
L 1831 0 
L 1172 0 
L 2766 4134 
L 525 4134 
L 525 4666 
z
" transform="scale(0.015625)"/>
     </defs>
     <use xlink:href="#DejaVuSans-31"/>
     <use xlink:href="#DejaVuSans-37" transform="translate(63.623047 0)"/>
     <use xlink:href="#DejaVuSans-32" transform="translate(127.246094 0)"/>
     <use xlink:href="#DejaVuSans-33" transform="translate(190.869141 0)"/>
    </g>
   </g>
   <g id="text_5">
    <!-- HS &amp; HA -->
    <g transform="translate(160.666445 298.616282) scale(0.09 -0.09)">
     <use xlink:href="#DejaVuSans-48"/>
     <use xlink:href="#DejaVuSans-53" transform="translate(75.195312 0)"/>
     <use xlink:href="#DejaVuSans-20" transform="translate(138.671875 0)"/>
     <use xlink:href="#DejaVuSans-26" transform="translate(170.458984 0)"/>
     <use xlink:href="#DejaVuSans-20" transform="translate(248.4375 0)"/>
     <use xlink:href="#DejaVuSans-48" transform="translate(280.224609 0)"/>
     <use xlink:href="#DejaVuSans-41" transform="translate(355.419922 0)"/>
    </g>
    <!-- 43 -->
    <g transform="translate(174.013164 308.694313) scale(0.09 -0.09)">
     <defs>
      <path id="DejaVuSans-34" d="M 2419 4116 
L 825 1625 
L 2419 1625 
L 2419 4116 
z
M 2253 4666 
L 3047 4666 
L 3047 1625 
L 3713 1625 
L 3713 1100 
L 3047 1100 
L 3047 0 
L 2419 0 
L 2419 1100 
L 313 1100 
L 313 1709 
L 2253 4666 
z
" transform="scale(0.015625)"/>
     </defs>
     <use xlink:href="#DejaVuSans-34"/>
     <use xlink:href="#DejaVuSans-33" transform="translate(63.623047 0)"/>
    </g>
   </g>
   <g id="text_6">
    <!-- HM &amp; HA -->
    <g transform="translate(344.052562 283.388055) scale(0.09 -0.09)">
     <use xlink:href="#DejaVuSans-48"/>
     <use xlink:href="#DejaVuSans-4d" transform="translate(75.195312 0)"/>
     <use xlink:href="#DejaVuSans-20" transform="translate(161.474609 0)"/>
     <use xlink:href="#DejaVuSans-26" transform="translate(193.261719 0)"/>
     <use xlink:href="#DejaVuSans-20" transform="translate(271.240234 0)"/>
     <use xlink:href="#DejaVuSans-48" transform="translate(303.027344 0)"/>
     <use xlink:href="#DejaVuSans-41" transform="translate(378.222656 0)"/>
    </g>
    <!-- 456 -->
    <g transform="translate(355.562015 293.466086) scale(0.09 -0.09)">
     <defs>
      <path id="DejaVuSans-35" d="M 691 4666 
L 3169 4666 
L 3169 4134 
L 1269 4134 
L 1269 2991 
Q 1406 3038 1543 3061 
Q 1681 3084 1819 3084 
Q 2600 3084 3056 2656 
Q 3513 2228 3513 1497 
Q 3513 744 3044 326 
Q 2575 -91 1722 -91 
Q 1428 -91 1123 -41 
Q 819 9 494 109 
L 494 744 
Q 775 591 1075 516 
Q 1375 441 1709 441 
Q 2250 441 2565 725 
Q 2881 1009 2881 1497 
Q 2881 1984 2565 2268 
Q 2250 2553 1709 2553 
Q 1456 2553 1204 2497 
Q 953 2441 691 2322 
L 691 4666 
z
" transform="scale(0.015625)"/>
      <path id="DejaVuSans-36" d="M 2113 2584 
Q 1688 2584 1439 2293 
Q 1191 2003 1191 1497 
Q 1191 994 1439 701 
Q 1688 409 2113 409 
Q 2538 409 2786 701 
Q 3034 994 3034 1497 
Q 3034 2003 2786 2293 
Q 2538 2584 2113 2584 
z
M 3366 4563 
L 3366 3988 
Q 3128 4100 2886 4159 
Q 2644 4219 2406 4219 
Q 1781 4219 1451 3797 
Q 1122 3375 1075 2522 
Q 1259 2794 1537 2939 
Q 1816 3084 2150 3084 
Q 2853 3084 3261 2657 
Q 3669 2231 3669 1497 
Q 3669 778 3244 343 
Q 2819 -91 2113 -91 
Q 1303 -91 875 529 
Q 447 1150 447 2328 
Q 447 3434 972 4092 
Q 1497 4750 2381 4750 
Q 2619 4750 2861 4703 
Q 3103 4656 3366 4563 
z
" transform="scale(0.015625)"/>
     </defs>
     <use xlink:href="#DejaVuSans-34"/>
     <use xlink:href="#DejaVuSans-35" transform="translate(63.623047 0)"/>
     <use xlink:href="#DejaVuSans-36" transform="translate(127.246094 0)"/>
    </g>
   </g>
   <g id="text_7">
    <!-- HS &amp; HM &amp; HA -->
    <g transform="translate(202.735831 243.27777) scale(0.09 -0.09)">
     <use xlink:href="#DejaVuSans-48"/>
     <use xlink:href="#DejaVuSans-53" transform="translate(75.195312 0)"/>
     <use xlink:href="#DejaVuSans-20" transform="translate(138.671875 0)"/>
     <use xlink:href="#DejaVuSans-26" transform="translate(170.458984 0)"/>
     <use xlink:href="#DejaVuSans-20" transform="translate(248.4375 0)"/>
     <use xlink:href="#DejaVuSans-48" transform="translate(280.224609 0)"/>
     <use xlink:href="#DejaVuSans-4d" transform="translate(355.419922 0)"/>
     <use xlink:href="#DejaVuSans-20" transform="translate(441.699219 0)"/>
     <use xlink:href="#DejaVuSans-26" transform="translate(473.486328 0)"/>
     <use xlink:href="#DejaVuSans-20" transform="translate(551.464844 0)"/>
     <use xlink:href="#DejaVuSans-48" transform="translate(583.251953 0)"/>
     <use xlink:href="#DejaVuSans-41" transform="translate(658.447266 0)"/>
    </g>
    <!-- 185 -->
    <g transform="translate(226.855831 253.355801) scale(0.09 -0.09)">
     <use xlink:href="#DejaVuSans-31"/>
     <use xlink:href="#DejaVuSans-38" transform="translate(63.623047 0)"/>
     <use xlink:href="#DejaVuSans-35" transform="translate(127.246094 0)"/>
    </g>
   </g>
   <g id="text_8">
    <!-- HS -->
    <g transform="translate(81.121154 91.004033) scale(0.14 -0.14)">
     <defs>
      <path id="DejaVuSans-Bold-48" d="M 588 4666 
L 1791 4666 
L 1791 2888 
L 3566 2888 
L 3566 4666 
L 4769 4666 
L 4769 0 
L 3566 0 
L 3566 1978 
L 1791 1978 
L 1791 0 
L 588 0 
L 588 4666 
z
" transform="scale(0.015625)"/>
      <path id="DejaVuSans-Bold-53" d="M 3834 4519 
L 3834 3531 
Q 3450 3703 3084 3790 
Q 2719 3878 2394 3878 
Q 1963 3878 1756 3759 
Q 1550 3641 1550 3391 
Q 1550 3203 1689 3098 
Q 1828 2994 2194 2919 
L 2706 2816 
Q 3484 2659 3812 2340 
Q 4141 2022 4141 1434 
Q 4141 663 3683 286 
Q 3225 -91 2284 -91 
Q 1841 -91 1394 -6 
Q 947 78 500 244 
L 500 1259 
Q 947 1022 1364 901 
Q 1781 781 2169 781 
Q 2563 781 2772 912 
Q 2981 1044 2981 1288 
Q 2981 1506 2839 1625 
Q 2697 1744 2272 1838 
L 1806 1941 
Q 1106 2091 782 2419 
Q 459 2747 459 3303 
Q 459 4000 909 4375 
Q 1359 4750 2203 4750 
Q 2588 4750 2994 4692 
Q 3400 4634 3834 4519 
z
" transform="scale(0.015625)"/>
     </defs>
     <use xlink:href="#DejaVuSans-Bold-48"/>
     <use xlink:href="#DejaVuSans-Bold-53" transform="translate(83.691406 0)"/>
    </g>
   </g>
   <g id="text_9">
    <!-- HM -->
    <g transform="translate(423.572953 64.183475) scale(0.14 -0.14)">
     <defs>
      <path id="DejaVuSans-Bold-4d" d="M 588 4666 
L 2119 4666 
L 3181 2169 
L 4250 4666 
L 5778 4666 
L 5778 0 
L 4641 0 
L 4641 3413 
L 3566 897 
L 2803 897 
L 1728 3413 
L 1728 0 
L 588 0 
L 588 4666 
z
" transform="scale(0.015625)"/>
     </defs>
     <use xlink:href="#DejaVuSans-Bold-48"/>
     <use xlink:href="#DejaVuSans-Bold-4d" transform="translate(83.691406 0)"/>
    </g>
   </g>
   <g id="text_10">
    <!-- HA -->
    <g transform="translate(277.410489 549.6591) scale(0.14 -0.14)">
     <defs>
      <path id="DejaVuSans-Bold-41" d="M 3419 850 
L 1538 850 
L 1241 0 
L 31 0 
L 1759 4666 
L 3194 4666 
L 4922 0 
L 3713 0 
L 3419 850 
z
M 1838 1716 
L 3116 1716 
L 2478 3572 
L 1838 1716 
z
" transform="scale(0.015625)"/>
     </defs>
     <use xlink:href="#DejaVuSans-Bold-48"/>
     <use xlink:href="#DejaVuSans-Bold-41" transform="translate(83.691406 0)"/>
    </g>
   </g>
   <g id="text_11">
    <!-- Unannotated Proteins (BLASTp RBH, ≥60% identity) -->
    <g transform="translate(34.915162 19.3575) scale(0.16 -0.16)">
     <defs>
      <path id="DejaVuSans-Bold-55" d="M 588 4666 
L 1791 4666 
L 1791 1869 
Q 1791 1291 1980 1042 
Q 2169 794 2597 794 
Q 3028 794 3217 1042 
Q 3406 1291 3406 1869 
L 3406 4666 
L 4609 4666 
L 4609 1869 
Q 4609 878 4112 393 
Q 3616 -91 2597 -91 
Q 1581 -91 1084 393 
Q 588 878 588 1869 
L 588 4666 
z
" transform="scale(0.015625)"/>
      <path id="DejaVuSans-Bold-6e" d="M 4056 2131 
L 4056 0 
L 2931 0 
L 2931 347 
L 2931 1631 
Q 2931 2084 2911 2256 
Q 2891 2428 2841 2509 
Q 2775 2619 2662 2680 
Q 2550 2741 2406 2741 
Q 2056 2741 1856 2470 
Q 1656 2200 1656 1722 
L 1656 0 
L 538 0 
L 538 3500 
L 1656 3500 
L 1656 2988 
Q 1909 3294 2193 3439 
Q 2478 3584 2822 3584 
Q 3428 3584 3742 3212 
Q 4056 2841 4056 2131 
z
" transform="scale(0.015625)"/>
      <path id="DejaVuSans-Bold-61" d="M 2106 1575 
Q 1756 1575 1579 1456 
Q 1403 1338 1403 1106 
Q 1403 894 1545 773 
Q 1688 653 1941 653 
Q 2256 653 2472 879 
Q 2688 1106 2688 1447 
L 2688 1575 
L 2106 1575 
z
M 3816 1997 
L 3816 0 
L 2688 0 
L 2688 519 
Q 2463 200 2181 54 
Q 1900 -91 1497 -91 
Q 953 -91 614 226 
Q 275 544 275 1050 
Q 275 1666 698 1953 
Q 1122 2241 2028 2241 
L 2688 2241 
L 2688 2328 
Q 2688 2594 2478 2717 
Q 2269 2841 1825 2841 
Q 1466 2841 1156 2769 
Q 847 2697 581 2553 
L 581 3406 
Q 941 3494 1303 3539 
Q 1666 3584 2028 3584 
Q 2975 3584 3395 3211 
Q 3816 2838 3816 1997 
z
" transform="scale(0.015625)"/>
      <path id="DejaVuSans-Bold-6f" d="M 2203 2784 
Q 1831 2784 1636 2517 
Q 1441 2250 1441 1747 
Q 1441 1244 1636 976 
Q 1831 709 2203 709 
Q 2569 709 2762 976 
Q 2956 1244 2956 1747 
Q 2956 2250 2762 2517 
Q 2569 2784 2203 2784 
z
M 2203 3584 
Q 3106 3584 3614 3096 
Q 4122 2609 4122 1747 
Q 4122 884 3614 396 
Q 3106 -91 2203 -91 
Q 1297 -91 786 396 
Q 275 884 275 1747 
Q 275 2609 786 3096 
Q 1297 3584 2203 3584 
z
" transform="scale(0.015625)"/>
      <path id="DejaVuSans-Bold-74" d="M 1759 4494 
L 1759 3500 
L 2913 3500 
L 2913 2700 
L 1759 2700 
L 1759 1216 
Q 1759 972 1856 886 
Q 1953 800 2241 800 
L 2816 800 
L 2816 0 
L 1856 0 
Q 1194 0 917 276 
Q 641 553 641 1216 
L 641 2700 
L 84 2700 
L 84 3500 
L 641 3500 
L 641 4494 
L 1759 4494 
z
" transform="scale(0.015625)"/>
      <path id="DejaVuSans-Bold-65" d="M 4031 1759 
L 4031 1441 
L 1416 1441 
Q 1456 1047 1700 850 
Q 1944 653 2381 653 
Q 2734 653 3104 758 
Q 3475 863 3866 1075 
L 3866 213 
Q 3469 63 3072 -14 
Q 2675 -91 2278 -91 
Q 1328 -91 801 392 
Q 275 875 275 1747 
Q 275 2603 792 3093 
Q 1309 3584 2216 3584 
Q 3041 3584 3536 3087 
Q 4031 2591 4031 1759 
z
M 2881 2131 
Q 2881 2450 2695 2645 
Q 2509 2841 2209 2841 
Q 1884 2841 1681 2658 
Q 1478 2475 1428 2131 
L 2881 2131 
z
" transform="scale(0.015625)"/>
      <path id="DejaVuSans-Bold-64" d="M 2919 2988 
L 2919 4863 
L 4044 4863 
L 4044 0 
L 2919 0 
L 2919 506 
Q 2688 197 2409 53 
Q 2131 -91 1766 -91 
Q 1119 -91 703 423 
Q 288 938 288 1747 
Q 288 2556 703 3070 
Q 1119 3584 1766 3584 
Q 2128 3584 2408 3439 
Q 2688 3294 2919 2988 
z
M 2181 722 
Q 2541 722 2730 984 
Q 2919 1247 2919 1747 
Q 2919 2247 2730 2509 
Q 2541 2772 2181 2772 
Q 1825 2772 1636 2509 
Q 1447 2247 1447 1747 
Q 1447 1247 1636 984 
Q 1825 722 2181 722 
z
" transform="scale(0.015625)"/>
      <path id="DejaVuSans-Bold-20" transform="scale(0.015625)"/>
      <path id="DejaVuSans-Bold-50" d="M 588 4666 
L 2584 4666 
Q 3475 4666 3951 4270 
Q 4428 3875 4428 3144 
Q 4428 2409 3951 2014 
Q 3475 1619 2584 1619 
L 1791 1619 
L 1791 0 
L 588 0 
L 588 4666 
z
M 1791 3794 
L 1791 2491 
L 2456 2491 
Q 2806 2491 2997 2661 
Q 3188 2831 3188 3144 
Q 3188 3456 2997 3625 
Q 2806 3794 2456 3794 
L 1791 3794 
z
" transform="scale(0.015625)"/>
      <path id="DejaVuSans-Bold-72" d="M 3138 2547 
Q 2991 2616 2845 2648 
Q 2700 2681 2553 2681 
Q 2122 2681 1889 2404 
Q 1656 2128 1656 1613 
L 1656 0 
L 538 0 
L 538 3500 
L 1656 3500 
L 1656 2925 
Q 1872 3269 2151 3426 
Q 2431 3584 2822 3584 
Q 2878 3584 2943 3579 
Q 3009 3575 3134 3559 
L 3138 2547 
z
" transform="scale(0.015625)"/>
      <path id="DejaVuSans-Bold-69" d="M 538 3500 
L 1656 3500 
L 1656 0 
L 538 0 
L 538 3500 
z
M 538 4863 
L 1656 4863 
L 1656 3950 
L 538 3950 
L 538 4863 
z
" transform="scale(0.015625)"/>
      <path id="DejaVuSans-Bold-73" d="M 3272 3391 
L 3272 2541 
Q 2913 2691 2578 2766 
Q 2244 2841 1947 2841 
Q 1628 2841 1473 2761 
Q 1319 2681 1319 2516 
Q 1319 2381 1436 2309 
Q 1553 2238 1856 2203 
L 2053 2175 
Q 2913 2066 3209 1816 
Q 3506 1566 3506 1031 
Q 3506 472 3093 190 
Q 2681 -91 1863 -91 
Q 1516 -91 1145 -36 
Q 775 19 384 128 
L 384 978 
Q 719 816 1070 734 
Q 1422 653 1784 653 
Q 2113 653 2278 743 
Q 2444 834 2444 1013 
Q 2444 1163 2330 1236 
Q 2216 1309 1875 1350 
L 1678 1375 
Q 931 1469 631 1722 
Q 331 1975 331 2491 
Q 331 3047 712 3315 
Q 1094 3584 1881 3584 
Q 2191 3584 2531 3537 
Q 2872 3491 3272 3391 
z
" transform="scale(0.015625)"/>
      <path id="DejaVuSans-Bold-28" d="M 2413 -844 
L 1484 -844 
Q 1006 -72 778 623 
Q 550 1319 550 2003 
Q 550 2688 779 3389 
Q 1009 4091 1484 4856 
L 2413 4856 
Q 2013 4116 1813 3408 
Q 1613 2700 1613 2009 
Q 1613 1319 1811 609 
Q 2009 -100 2413 -844 
z
" transform="scale(0.015625)"/>
      <path id="DejaVuSans-Bold-42" d="M 2456 2859 
Q 2741 2859 2887 2984 
Q 3034 3109 3034 3353 
Q 3034 3594 2887 3720 
Q 2741 3847 2456 3847 
L 1791 3847 
L 1791 2859 
L 2456 2859 
z
M 2497 819 
Q 2859 819 3042 972 
Q 3225 1125 3225 1434 
Q 3225 1738 3044 1889 
Q 2863 2041 2497 2041 
L 1791 2041 
L 1791 819 
L 2497 819 
z
M 3616 2497 
Q 4003 2384 4215 2081 
Q 4428 1778 4428 1338 
Q 4428 663 3972 331 
Q 3516 0 2584 0 
L 588 0 
L 588 4666 
L 2394 4666 
Q 3366 4666 3802 4372 
Q 4238 4078 4238 3431 
Q 4238 3091 4078 2852 
Q 3919 2613 3616 2497 
z
" transform="scale(0.015625)"/>
      <path id="DejaVuSans-Bold-4c" d="M 588 4666 
L 1791 4666 
L 1791 909 
L 3903 909 
L 3903 0 
L 588 0 
L 588 4666 
z
" transform="scale(0.015625)"/>
      <path id="DejaVuSans-Bold-54" d="M 31 4666 
L 4331 4666 
L 4331 3756 
L 2784 3756 
L 2784 0 
L 1581 0 
L 1581 3756 
L 31 3756 
L 31 4666 
z
" transform="scale(0.015625)"/>
      <path id="DejaVuSans-Bold-70" d="M 1656 506 
L 1656 -1331 
L 538 -1331 
L 538 3500 
L 1656 3500 
L 1656 2988 
Q 1888 3294 2169 3439 
Q 2450 3584 2816 3584 
Q 3463 3584 3878 3070 
Q 4294 2556 4294 1747 
Q 4294 938 3878 423 
Q 3463 -91 2816 -91 
Q 2450 -91 2169 54 
Q 1888 200 1656 506 
z
M 2400 2772 
Q 2041 2772 1848 2508 
Q 1656 2244 1656 1747 
Q 1656 1250 1848 986 
Q 2041 722 2400 722 
Q 2759 722 2948 984 
Q 3138 1247 3138 1747 
Q 3138 2247 2948 2509 
Q 2759 2772 2400 2772 
z
" transform="scale(0.015625)"/>
      <path id="DejaVuSans-Bold-52" d="M 2297 2597 
Q 2675 2597 2839 2737 
Q 3003 2878 3003 3200 
Q 3003 3519 2839 3656 
Q 2675 3794 2297 3794 
L 1791 3794 
L 1791 2597 
L 2297 2597 
z
M 1791 1766 
L 1791 0 
L 588 0 
L 588 4666 
L 2425 4666 
Q 3347 4666 3776 4356 
Q 4206 4047 4206 3378 
Q 4206 2916 3982 2619 
Q 3759 2322 3309 2181 
Q 3556 2125 3751 1926 
Q 3947 1728 4147 1325 
L 4800 0 
L 3519 0 
L 2950 1159 
Q 2778 1509 2601 1637 
Q 2425 1766 2131 1766 
L 1791 1766 
z
" transform="scale(0.015625)"/>
      <path id="DejaVuSans-Bold-2c" d="M 653 1209 
L 1778 1209 
L 1778 256 
L 1006 -909 
L 341 -909 
L 653 256 
L 653 1209 
z
" transform="scale(0.015625)"/>
      <path id="DejaVuSans-Bold-2265" d="M 678 744 
L 4684 744 
L 4684 0 
L 678 0 
L 678 744 
z
M 678 2963 
L 678 3725 
L 4684 2681 
L 4684 1947 
L 678 897 
L 678 1656 
L 3481 2309 
L 678 2963 
z
" transform="scale(0.015625)"/>
      <path id="DejaVuSans-Bold-36" d="M 2316 2303 
Q 2000 2303 1842 2098 
Q 1684 1894 1684 1484 
Q 1684 1075 1842 870 
Q 2000 666 2316 666 
Q 2634 666 2792 870 
Q 2950 1075 2950 1484 
Q 2950 1894 2792 2098 
Q 2634 2303 2316 2303 
z
M 3803 4544 
L 3803 3681 
Q 3506 3822 3243 3889 
Q 2981 3956 2731 3956 
Q 2194 3956 1894 3657 
Q 1594 3359 1544 2772 
Q 1750 2925 1990 3001 
Q 2231 3078 2516 3078 
Q 3231 3078 3670 2659 
Q 4109 2241 4109 1563 
Q 4109 813 3618 361 
Q 3128 -91 2303 -91 
Q 1394 -91 895 523 
Q 397 1138 397 2266 
Q 397 3422 980 4083 
Q 1563 4744 2578 4744 
Q 2900 4744 3203 4694 
Q 3506 4644 3803 4544 
z
" transform="scale(0.015625)"/>
      <path id="DejaVuSans-Bold-30" d="M 2944 2338 
Q 2944 3213 2780 3570 
Q 2616 3928 2228 3928 
Q 1841 3928 1675 3570 
Q 1509 3213 1509 2338 
Q 1509 1453 1675 1090 
Q 1841 728 2228 728 
Q 2613 728 2778 1090 
Q 2944 1453 2944 2338 
z
M 4147 2328 
Q 4147 1169 3647 539 
Q 3147 -91 2228 -91 
Q 1306 -91 806 539 
Q 306 1169 306 2328 
Q 306 3491 806 4120 
Q 1306 4750 2228 4750 
Q 3147 4750 3647 4120 
Q 4147 3491 4147 2328 
z
" transform="scale(0.015625)"/>
      <path id="DejaVuSans-Bold-25" d="M 4959 1925 
Q 4738 1925 4616 1733 
Q 4494 1541 4494 1184 
Q 4494 825 4614 633 
Q 4734 441 4959 441 
Q 5184 441 5303 633 
Q 5422 825 5422 1184 
Q 5422 1541 5301 1733 
Q 5181 1925 4959 1925 
z
M 4959 2450 
Q 5541 2450 5875 2112 
Q 6209 1775 6209 1184 
Q 6209 594 5875 251 
Q 5541 -91 4959 -91 
Q 4378 -91 4042 251 
Q 3706 594 3706 1184 
Q 3706 1772 4042 2111 
Q 4378 2450 4959 2450 
z
M 2094 -91 
L 1403 -91 
L 4319 4750 
L 5013 4750 
L 2094 -91 
z
M 1453 4750 
Q 2034 4750 2367 4411 
Q 2700 4072 2700 3481 
Q 2700 2891 2367 2550 
Q 2034 2209 1453 2209 
Q 872 2209 539 2550 
Q 206 2891 206 3481 
Q 206 4072 539 4411 
Q 872 4750 1453 4750 
z
M 1453 4225 
Q 1228 4225 1106 4031 
Q 984 3838 984 3481 
Q 984 3122 1106 2926 
Q 1228 2731 1453 2731 
Q 1678 2731 1798 2926 
Q 1919 3122 1919 3481 
Q 1919 3838 1797 4031 
Q 1675 4225 1453 4225 
z
" transform="scale(0.015625)"/>
      <path id="DejaVuSans-Bold-79" d="M 78 3500 
L 1197 3500 
L 2138 1125 
L 2938 3500 
L 4056 3500 
L 2584 -331 
Q 2363 -916 2067 -1148 
Q 1772 -1381 1288 -1381 
L 641 -1381 
L 641 -647 
L 991 -647 
Q 1275 -647 1404 -556 
Q 1534 -466 1606 -231 
L 1638 -134 
L 78 3500 
z
" transform="scale(0.015625)"/>
      <path id="DejaVuSans-Bold-29" d="M 513 -844 
Q 913 -100 1113 609 
Q 1313 1319 1313 2009 
Q 1313 2700 1113 3408 
Q 913 4116 513 4856 
L 1441 4856 
Q 1916 4091 2145 3389 
Q 2375 2688 2375 2003 
Q 2375 1319 2147 623 
Q 1919 -72 1441 -844 
L 513 -844 
z
" transform="scale(0.015625)"/>
     </defs>
     <use xlink:href="#DejaVuSans-Bold-55"/>
     <use xlink:href="#DejaVuSans-Bold-6e" transform="translate(81.201172 0)"/>
     <use xlink:href="#DejaVuSans-Bold-61" transform="translate(152.392578 0)"/>
     <use xlink:href="#DejaVuSans-Bold-6e" transform="translate(219.873047 0)"/>
     <use xlink:href="#DejaVuSans-Bold-6e" transform="translate(291.064453 0)"/>
     <use xlink:href="#DejaVuSans-Bold-6f" transform="translate(362.255859 0)"/>
     <use xlink:href="#DejaVuSans-Bold-74" transform="translate(430.957031 0)"/>
     <use xlink:href="#DejaVuSans-Bold-61" transform="translate(478.759766 0)"/>
     <use xlink:href="#DejaVuSans-Bold-74" transform="translate(546.240234 0)"/>
     <use xlink:href="#DejaVuSans-Bold-65" transform="translate(594.042969 0)"/>
     <use xlink:href="#DejaVuSans-Bold-64" transform="translate(661.865234 0)"/>
     <use xlink:href="#DejaVuSans-Bold-20" transform="translate(733.447266 0)"/>
     <use xlink:href="#DejaVuSans-Bold-50" transform="translate(768.261719 0)"/>
     <use xlink:href="#DejaVuSans-Bold-72" transform="translate(841.552734 0)"/>
     <use xlink:href="#DejaVuSans-Bold-6f" transform="translate(890.869141 0)"/>
     <use xlink:href="#DejaVuSans-Bold-74" transform="translate(959.570312 0)"/>
     <use xlink:href="#DejaVuSans-Bold-65" transform="translate(1007.373047 0)"/>
     <use xlink:href="#DejaVuSans-Bold-69" transform="translate(1075.195312 0)"/>
     <use xlink:href="#DejaVuSans-Bold-6e" transform="translate(1109.472656 0)"/>
     <use xlink:href="#DejaVuSans-Bold-73" transform="translate(1180.664062 0)"/>
     <use xlink:href="#DejaVuSans-Bold-20" transform="translate(1240.185547 0)"/>
     <use xlink:href="#DejaVuSans-Bold-28" transform="translate(1275 0)"/>
     <use xlink:href="#DejaVuSans-Bold-42" transform="translate(1320.703125 0)"/>
     <use xlink:href="#DejaVuSans-Bold-4c" transform="translate(1396.923828 0)"/>
     <use xlink:href="#DejaVuSans-Bold-41" transform="translate(1460.644531 0)"/>
     <use xlink:href="#DejaVuSans-Bold-53" transform="translate(1538.037109 0)"/>
     <use xlink:href="#DejaVuSans-Bold-54" transform="translate(1610.058594 0)"/>
     <use xlink:href="#DejaVuSans-Bold-70" transform="translate(1678.271484 0)"/>
     <use xlink:href="#DejaVuSans-Bold-20" transform="translate(1749.853516 0)"/>
     <use xlink:href="#DejaVuSans-Bold-52" transform="translate(1784.667969 0)"/>
     <use xlink:href="#DejaVuSans-Bold-42" transform="translate(1861.669922 0)"/>
     <use xlink:href="#DejaVuSans-Bold-48" transform="translate(1937.890625 0)"/>
     <use xlink:href="#DejaVuSans-Bold-2c" transform="translate(2021.582031 0)"/>
     <use xlink:href="#DejaVuSans-Bold-20" transform="translate(2059.570312 0)"/>
     <use xlink:href="#DejaVuSans-Bold-2265" transform="translate(2094.384766 0)"/>
     <use xlink:href="#DejaVuSans-Bold-36" transform="translate(2178.173828 0)"/>
     <use xlink:href="#DejaVuSans-Bold-30" transform="translate(2247.753906 0)"/>
     <use xlink:href="#DejaVuSans-Bold-25" transform="translate(2317.333984 0)"/>
     <use xlink:href="#DejaVuSans-Bold-20" transform="translate(2417.529297 0)"/>
     <use xlink:href="#DejaVuSans-Bold-69" transform="translate(2452.34375 0)"/>
     <use xlink:href="#DejaVuSans-Bold-64" transform="translate(2486.621094 0)"/>
     <use xlink:href="#DejaVuSans-Bold-65" transform="translate(2558.203125 0)"/>
     <use xlink:href="#DejaVuSans-Bold-6e" transform="translate(2626.025391 0)"/>
     <use xlink:href="#DejaVuSans-Bold-74" transform="translate(2697.216797 0)"/>
     <use xlink:href="#DejaVuSans-Bold-69" transform="translate(2745.019531 0)"/>
     <use xlink:href="#DejaVuSans-Bold-74" transform="translate(2779.296875 0)"/>
     <use xlink:href="#DejaVuSans-Bold-79" transform="translate(2827.099609 0)"/>
     <use xlink:href="#DejaVuSans-Bold-29" transform="translate(2892.285156 0)"/>
    </g>
   </g>
  </g>
 </g>
 <defs>
  <clipPath id="pa6f2346854">
   <rect x="7.2" y="25.3575" width="525.502824" height="536.88"/>
  </clipPath>
 </defs>
</svg>
