<?xml version="1.0" encoding="utf-8" standalone="no"?>
<!DOCTYPE svg PUBLIC "-//W3C//DTD SVG 1.1//EN"
  "http://www.w3.org/Graphics/SVG/1.1/DTD/svg11.dtd">
<svg xmlns:xlink="http://www.w3.org/1999/xlink" width="539.217324pt" height="569.4375pt" viewBox="0 0 539.217324 569.4375" xmlns="http://www.w3.org/2000/svg" version="1.1">
 <metadata>
  <rdf:RDF xmlns:dc="http://purl.org/dc/elements/1.1/" xmlns:cc="http://creativecommons.org/ns#" xmlns:rdf="http://www.w3.org/1999/02/22-rdf-syntax-ns#">
   <cc:Work>
    <dc:type rdf:resource="http://purl.org/dc/dcmitype/StillImage"/>
    <dc:date>2026-02-16T12:07:30.947573</dc:date>
    <dc:format>image/svg+xml</dc:format>
    <dc:creator>
     <cc:Agent>
      <dc:title>Matplotlib v3.10.8, https://matplotlib.org/</dc:title>
     </cc:Agent>
    </dc:creator>
   </cc:Work>
  </rdf:RDF>
 </metadata>
 <defs>
  <style type="text/css">*{stroke-linejoin: round; stroke-linecap: butt}</style>
 </defs>
 <g id="figure_1">
  <g id="patch_1">
   <path d="M 0 569.4375 
L 539.217324 569.4375 
L 539.217324 0 
L 0 0 
z
" style="fill: #ffffff"/>
  </g>
  <g id="axes_1">
   <g id="patch_2">
    <path d="M 238.157368 121.733313 
C 225.202721 109.716705 209.636175 100.866388 192.684581 95.879884 
C 175.732987 90.89338 157.853697 89.905226 140.455837 92.993299 
C 123.057976 96.081373 106.610937 103.162359 92.410965 113.678183 
C 78.210992 124.194006 66.6412 137.86095 58.613442 153.601879 
C 50.585683 169.342808 46.316546 186.733033 46.142495 204.401974 
C 45.968445 222.070914 49.894176 239.541864 57.610289 255.437881 
C 65.326403 271.333897 76.624719 285.226108 90.61478 296.019622 
C 104.604841 306.813136 120.909197 314.216745 138.242848 317.646947 
C 144.412239 298.762766 154.111996 281.22079 166.825574 265.955187 
C 179.539153 250.689584 195.036795 237.976233 212.4932 228.492161 
C 209.426978 209.885528 210.118141 190.851848 214.525819 172.516612 
C 218.933496 154.181376 226.969064 136.913246 238.157368 121.733313 
" clip-path="url(#p15ebfbccf1)" style="fill: #ff8080; opacity: 0.65"/>
   </g>
   <g id="patch_3">
    <path d="M 238.157368 121.733313 
C 250.240503 132.941515 259.757565 146.631812 266.054055 161.862708 
C 272.350545 177.093603 275.278737 193.507755 274.637256 209.976345 
C 309.923372 207.095394 345.166818 216.238975 374.601726 235.91119 
C 404.036635 255.583405 425.965227 284.649576 436.799962 318.354449 
C 452.995037 306.160354 466.376372 290.621048 476.031958 272.795615 
C 485.687544 254.970182 491.392921 235.273004 492.759239 215.046547 
C 494.125556 194.82009 491.121052 174.53455 483.950497 155.572494 
C 476.779943 136.610439 465.610031 119.412671 451.202048 105.151309 
C 436.794066 90.889948 419.48295 79.89652 400.448545 72.920288 
C 381.41414 65.944055 361.098931 63.147191 340.887507 64.720316 
C 320.676082 66.293441 301.03829 72.199985 283.312548 82.037387 
C 265.586806 91.874789 250.185179 105.414362 238.157368 121.733313 
" clip-path="url(#p15ebfbccf1)" style="fill: #80c080; opacity: 0.65"/>
   </g>
   <g id="patch_4">
    <path d="M 238.157368 121.733313 
C 226.969064 136.913246 218.933496 154.181376 214.525819 172.516612 
C 210.118141 190.851848 209.426978 209.885528 212.4932 228.492161 
C 222.066985 223.290719 232.156515 219.100491 242.598404 215.989331 
C 253.040293 212.878172 263.77787 210.862965 274.637256 209.976345 
C 275.278737 193.507755 272.350545 177.093603 266.054055 161.862708 
C 259.757565 146.631812 250.240503 132.941515 238.157368 121.733313 
" clip-path="url(#p15ebfbccf1)" style="fill: #c0a060; opacity: 0.65"/>
   </g>
   <g id="patch_5">
    <path d="M 138.242848 317.646947 
C 130.556063 341.175794 128.544335 366.192927 132.372563 390.647742 
C 136.200791 415.102557 145.761439 438.308116 160.27084 458.362307 
C 174.780241 478.416498 193.830825 494.755997 215.861055 506.041488 
C 237.891284 517.326979 262.282327 523.241452 287.0349 523.300109 
C 311.787473 523.358766 336.206273 517.55996 358.289742 506.379006 
C 380.373211 495.198053 399.501021 478.949027 414.105305 458.963828 
C 428.709589 438.978628 438.380111 415.818642 442.324198 391.382245 
C 446.268285 366.945848 444.375148 341.919462 436.799962 318.354449 
C 421.886604 329.583473 404.893803 337.745013 386.80662 342.365948 
C 368.719437 346.986884 349.894258 347.976166 331.422368 345.276445 
C 312.950477 342.576725 295.195841 336.241198 279.187683 326.637129 
C 263.179526 317.033061 249.233269 304.349689 238.157368 289.322259 
C 224.923871 301.597525 208.968776 310.565057 191.602964 315.488078 
C 174.237151 320.411099 155.949607 321.150985 138.242848 317.646947 
" clip-path="url(#p15ebfbccf1)" style="fill: #8080ff; opacity: 0.65"/>
   </g>
   <g id="patch_6">
    <path d="M 138.242848 317.646947 
C 155.949607 321.150985 174.237151 320.411099 191.602964 315.488078 
C 208.968776 310.565057 224.923871 301.597525 238.157368 289.322259 
C 231.560214 280.37145 226.04313 270.672785 221.720832 260.427925 
C 217.398534 250.183065 214.301189 239.463514 212.4932 228.492161 
C 195.036795 237.976233 179.539153 250.689584 166.825574 265.955187 
C 154.111996 281.22079 144.412239 298.762766 138.242848 317.646947 
" clip-path="url(#p15ebfbccf1)" style="fill: #c080c0; opacity: 0.65"/>
   </g>
   <g id="patch_7">
    <path d="M 274.637256 209.976345 
C 274.054113 224.947237 270.532915 239.65841 264.274474 253.270888 
C 258.016034 266.883366 249.141629 279.133361 238.157368 289.322259 
C 249.233269 304.349689 263.179526 317.033061 279.187683 326.637129 
C 295.195841 336.241198 312.950477 342.576725 331.422368 345.276445 
C 349.894258 347.976166 368.719437 346.986884 386.80662 342.365948 
C 404.893803 337.745013 421.886604 329.583473 436.799962 318.354449 
C 425.965227 284.649576 404.036635 255.583405 374.601726 235.91119 
C 345.166818 216.238975 309.923372 207.095394 274.637256 209.976345 
" clip-path="url(#p15ebfbccf1)" style="fill: #80b0d0; opacity: 0.65"/>
   </g>
   <g id="patch_8">
    <path d="M 212.4932 228.492161 
C 214.301189 239.463514 217.398534 250.183065 221.720832 260.427925 
C 226.04313 270.672785 231.560214 280.37145 238.157368 289.322259 
C 249.141629 279.133361 258.016034 266.883366 264.274474 253.270888 
C 270.532915 239.65841 274.054113 224.947237 274.637256 209.976345 
C 263.77787 210.862965 253.040293 212.878172 242.598404 215.989331 
C 232.156515 219.100491 222.066985 223.290719 212.4932 228.492161 
" clip-path="url(#p15ebfbccf1)" style="fill: #a898a8; opacity: 0.65"/>
   </g>
   <g id="text_1">
    <!-- HS only -->
    <g transform="translate(79.968726 166.237415) scale(0.09 -0.09)">
     <defs>
      <path id="DejaVuSans-48" d="M 628 4666 
L 1259 4666 
L 1259 2753 
L 3553 2753 
L 3553 4666 
L 4184 4666 
L 4184 0 
L 3553 0 
L 3553 2222 
L 1259 2222 
L 1259 0 
L 628 0 
L 628 4666 
z
" transform="scale(0.015625)"/>
      <path id="DejaVuSans-53" d="M 3425 4513 
L 3425 3897 
Q 3066 4069 2747 4153 
Q 2428 4238 2131 4238 
Q 1616 4238 1336 4038 
Q 1056 3838 1056 3469 
Q 1056 3159 1242 3001 
Q 1428 2844 1947 2747 
L 2328 2669 
Q 3034 2534 3370 2195 
Q 3706 1856 3706 1288 
Q 3706 609 3251 259 
Q 2797 -91 1919 -91 
Q 1588 -91 1214 -16 
Q 841 59 441 206 
L 441 856 
Q 825 641 1194 531 
Q 1563 422 1919 422 
Q 2459 422 2753 634 
Q 3047 847 3047 1241 
Q 3047 1584 2836 1778 
Q 2625 1972 2144 2069 
L 1759 2144 
Q 1053 2284 737 2584 
Q 422 2884 422 3419 
Q 422 4038 858 4394 
Q 1294 4750 2059 4750 
Q 2388 4750 2728 4690 
Q 3069 4631 3425 4513 
z
" transform="scale(0.015625)"/>
      <path id="DejaVuSans-20" transform="scale(0.015625)"/>
      <path id="DejaVuSans-6f" d="M 1959 3097 
Q 1497 3097 1228 2736 
Q 959 2375 959 1747 
Q 959 1119 1226 758 
Q 1494 397 1959 397 
Q 2419 397 2687 759 
Q 2956 1122 2956 1747 
Q 2956 2369 2687 2733 
Q 2419 3097 1959 3097 
z
M 1959 3584 
Q 2709 3584 3137 3096 
Q 3566 2609 3566 1747 
Q 3566 888 3137 398 
Q 2709 -91 1959 -91 
Q 1206 -91 779 398 
Q 353 888 353 1747 
Q 353 2609 779 3096 
Q 1206 3584 1959 3584 
z
" transform="scale(0.015625)"/>
      <path id="DejaVuSans-6e" d="M 3513 2113 
L 3513 0 
L 2938 0 
L 2938 2094 
Q 2938 2591 2744 2837 
Q 2550 3084 2163 3084 
Q 1697 3084 1428 2787 
Q 1159 2491 1159 1978 
L 1159 0 
L 581 0 
L 581 3500 
L 1159 3500 
L 1159 2956 
Q 1366 3272 1645 3428 
Q 1925 3584 2291 3584 
Q 2894 3584 3203 3211 
Q 3513 2838 3513 2113 
z
" transform="scale(0.015625)"/>
      <path id="DejaVuSans-6c" d="M 603 4863 
L 1178 4863 
L 1178 0 
L 603 0 
L 603 4863 
z
" transform="scale(0.015625)"/>
      <path id="DejaVuSans-79" d="M 2059 -325 
Q 1816 -950 1584 -1140 
Q 1353 -1331 966 -1331 
L 506 -1331 
L 506 -850 
L 844 -850 
Q 1081 -850 1212 -737 
Q 1344 -625 1503 -206 
L 1606 56 
L 191 3500 
L 800 3500 
L 1894 763 
L 2988 3500 
L 3597 3500 
L 2059 -325 
z
" transform="scale(0.015625)"/>
     </defs>
     <use xlink:href="#DejaVuSans-48"/>
     <use xlink:href="#DejaVuSans-53" transform="translate(75.195312 0)"/>
     <use xlink:href="#DejaVuSans-20" transform="translate(138.671875 0)"/>
     <use xlink:href="#DejaVuSans-6f" transform="translate(170.458984 0)"/>
     <use xlink:href="#DejaVuSans-6e" transform="translate(231.640625 0)"/>
     <use xlink:href="#DejaVuSans-6c" transform="translate(295.019531 0)"/>
     <use xlink:href="#DejaVuSans-79" transform="translate(322.802734 0)"/>
    </g>
    <!-- 1021 -->
    <g transform="translate(85.706226 176.315446) scale(0.09 -0.09)">
     <defs>
      <path id="DejaVuSans-31" d="M 794 531 
L 1825 531 
L 1825 4091 
L 703 3866 
L 703 4441 
L 1819 4666 
L 2450 4666 
L 2450 531 
L 3481 531 
L 3481 0 
L 794 0 
L 794 531 
z
" transform="scale(0.015625)"/>
      <path id="DejaVuSans-30" d="M 2034 4250 
Q 1547 4250 1301 3770 
Q 1056 3291 1056 2328 
Q 1056 1369 1301 889 
Q 1547 409 2034 409 
Q 2525 409 2770 889 
Q 3016 1369 3016 2328 
Q 3016 3291 2770 3770 
Q 2525 4250 2034 4250 
z
M 2034 4750 
Q 2819 4750 3233 4129 
Q 3647 3509 3647 2328 
Q 3647 1150 3233 529 
Q 2819 -91 2034 -91 
Q 1250 -91 836 529 
Q 422 1150 422 2328 
Q 422 3509 836 4129 
Q 1250 4750 2034 4750 
z
" transform="scale(0.015625)"/>
      <path id="DejaVuSans-32" d="M 1228 531 
L 3431 531 
L 3431 0 
L 469 0 
L 469 531 
Q 828 903 1448 1529 
Q 2069 2156 2228 2338 
Q 2531 2678 2651 2914 
Q 2772 3150 2772 3378 
Q 2772 3750 2511 3984 
Q 2250 4219 1831 4219 
Q 1534 4219 1204 4116 
Q 875 4013 500 3803 
L 500 4441 
Q 881 4594 1212 4672 
Q 1544 4750 1819 4750 
Q 2544 4750 2975 4387 
Q 3406 4025 3406 3419 
Q 3406 3131 3298 2873 
Q 3191 2616 2906 2266 
Q 2828 2175 2409 1742 
Q 1991 1309 1228 531 
z
" transform="scale(0.015625)"/>
     </defs>
     <use xlink:href="#DejaVuSans-31"/>
     <use xlink:href="#DejaVuSans-30" transform="translate(63.623047 0)"/>
     <use xlink:href="#DejaVuSans-32" transform="translate(127.246094 0)"/>
     <use xlink:href="#DejaVuSans-31" transform="translate(190.869141 0)"/>
    </g>
   </g>
   <g id="text_2">
    <!-- HM only -->
    <g transform="translate(378.647608 134.605995) scale(0.09 -0.09)">
     <defs>
      <path id="DejaVuSans-4d" d="M 628 4666 
L 1569 4666 
L 2759 1491 
L 3956 4666 
L 4897 4666 
L 4897 0 
L 4281 0 
L 4281 4097 
L 3078 897 
L 2444 897 
L 1241 4097 
L 1241 0 
L 628 0 
L 628 4666 
z
" transform="scale(0.015625)"/>
     </defs>
     <use xlink:href="#DejaVuSans-48"/>
     <use xlink:href="#DejaVuSans-4d" transform="translate(75.195312 0)"/>
     <use xlink:href="#DejaVuSans-20" transform="translate(161.474609 0)"/>
     <use xlink:href="#DejaVuSans-6f" transform="translate(193.261719 0)"/>
     <use xlink:href="#DejaVuSans-6e" transform="translate(254.443359 0)"/>
     <use xlink:href="#DejaVuSans-6c" transform="translate(317.822266 0)"/>
     <use xlink:href="#DejaVuSans-79" transform="translate(345.605469 0)"/>
    </g>
    <!-- 1282 -->
    <g transform="translate(385.410967 144.684026) scale(0.09 -0.09)">
     <defs>
      <path id="DejaVuSans-38" d="M 2034 2216 
Q 1584 2216 1326 1975 
Q 1069 1734 1069 1313 
Q 1069 891 1326 650 
Q 1584 409 2034 409 
Q 2484 409 2743 651 
Q 3003 894 3003 1313 
Q 3003 1734 2745 1975 
Q 2488 2216 2034 2216 
z
M 1403 2484 
Q 997 2584 770 2862 
Q 544 3141 544 3541 
Q 544 4100 942 4425 
Q 1341 4750 2034 4750 
Q 2731 4750 3128 4425 
Q 3525 4100 3525 3541 
Q 3525 3141 3298 2862 
Q 3072 2584 2669 2484 
Q 3125 2378 3379 2068 
Q 3634 1759 3634 1313 
Q 3634 634 3220 271 
Q 2806 -91 2034 -91 
Q 1263 -91 848 271 
Q 434 634 434 1313 
Q 434 1759 690 2068 
Q 947 2378 1403 2484 
z
M 1172 3481 
Q 1172 3119 1398 2916 
Q 1625 2713 2034 2713 
Q 2441 2713 2670 2916 
Q 2900 3119 2900 3481 
Q 2900 3844 2670 4047 
Q 2441 4250 2034 4250 
Q 1625 4250 1398 4047 
Q 1172 3844 1172 3481 
z
" transform="scale(0.015625)"/>
     </defs>
     <use xlink:href="#DejaVuSans-31"/>
     <use xlink:href="#DejaVuSans-32" transform="translate(63.623047 0)"/>
     <use xlink:href="#DejaVuSans-38" transform="translate(127.246094 0)"/>
     <use xlink:href="#DejaVuSans-32" transform="translate(190.869141 0)"/>
    </g>
   </g>
   <g id="text_3">
    <!-- HS &amp; HM -->
    <g transform="translate(222.440569 166.465251) scale(0.09 -0.09)">
     <defs>
      <path id="DejaVuSans-26" d="M 1556 2509 
Q 1272 2256 1139 2004 
Q 1006 1753 1006 1478 
Q 1006 1022 1337 719 
Q 1669 416 2169 416 
Q 2466 416 2725 514 
Q 2984 613 3213 813 
L 1556 2509 
z
M 1997 2859 
L 3584 1234 
Q 3769 1513 3872 1830 
Q 3975 2147 3994 2503 
L 4575 2503 
Q 4538 2091 4375 1687 
Q 4213 1284 3922 891 
L 4794 0 
L 4006 0 
L 3559 459 
Q 3234 181 2878 45 
Q 2522 -91 2113 -91 
Q 1359 -91 881 339 
Q 403 769 403 1441 
Q 403 1841 612 2192 
Q 822 2544 1241 2853 
Q 1091 3050 1012 3245 
Q 934 3441 934 3628 
Q 934 4134 1281 4442 
Q 1628 4750 2203 4750 
Q 2463 4750 2720 4694 
Q 2978 4638 3244 4525 
L 3244 3956 
Q 2972 4103 2725 4179 
Q 2478 4256 2266 4256 
Q 1938 4256 1733 4082 
Q 1528 3909 1528 3634 
Q 1528 3475 1620 3314 
Q 1713 3153 1997 2859 
z
" transform="scale(0.015625)"/>
     </defs>
     <use xlink:href="#DejaVuSans-48"/>
     <use xlink:href="#DejaVuSans-53" transform="translate(75.195312 0)"/>
     <use xlink:href="#DejaVuSans-20" transform="translate(138.671875 0)"/>
     <use xlink:href="#DejaVuSans-26" transform="translate(170.458984 0)"/>
     <use xlink:href="#DejaVuSans-20" transform="translate(248.4375 0)"/>
     <use xlink:href="#DejaVuSans-48" transform="translate(280.224609 0)"/>
     <use xlink:href="#DejaVuSans-4d" transform="translate(355.419922 0)"/>
    </g>
    <!-- 11 -->
    <g transform="translate(236.591663 176.543283) scale(0.09 -0.09)">
     <use xlink:href="#DejaVuSans-31"/>
     <use xlink:href="#DejaVuSans-31" transform="translate(63.623047 0)"/>
    </g>
   </g>
   <g id="text_4">
    <!-- HA only -->
    <g transform="translate(266.471221 454.600747) scale(0.09 -0.09)">
     <defs>
      <path id="DejaVuSans-41" d="M 2188 4044 
L 1331 1722 
L 3047 1722 
L 2188 4044 
z
M 1831 4666 
L 2547 4666 
L 4325 0 
L 3669 0 
L 3244 1197 
L 1141 1197 
L 716 0 
L 50 0 
L 1831 4666 
z
" transform="scale(0.015625)"/>
     </defs>
     <use xlink:href="#DejaVuSans-48"/>
     <use xlink:href="#DejaVuSans-41" transform="translate(75.195312 0)"/>
     <use xlink:href="#DejaVuSans-20" transform="translate(143.603516 0)"/>
     <use xlink:href="#DejaVuSans-6f" transform="translate(175.390625 0)"/>
     <use xlink:href="#DejaVuSans-6e" transform="translate(236.572266 0)"/>
     <use xlink:href="#DejaVuSans-6c" transform="translate(299.951172 0)"/>
     <use xlink:href="#DejaVuSans-79" transform="translate(327.734375 0)"/>
    </g>
    <!-- 1723 -->
    <g transform="translate(272.430206 464.678778) scale(0.09 -0.09)">
     <defs>
      <path id="DejaVuSans-37" d="M 525 4666 
L 3525 4666 
L 3525 4397 
L 1831 0 
L 1172 0 
L 2766 4134 
L 525 4134 
L 525 4666 
z
" transform="scale(0.015625)"/>
      <path id="DejaVuSans-33" d="M 2597 2516 
Q 3050 2419 3304 2112 
Q 3559 1806 3559 1356 
Q 3559 666 3084 287 
Q 2609 -91 1734 -91 
Q 1441 -91 1130 -33 
Q 819 25 488 141 
L 488 750 
Q 750 597 1062 519 
Q 1375 441 1716 441 
Q 2309 441 2620 675 
Q 2931 909 2931 1356 
Q 2931 1769 2642 2001 
Q 2353 2234 1838 2234 
L 1294 2234 
L 1294 2753 
L 1863 2753 
Q 2328 2753 2575 2939 
Q 2822 3125 2822 3475 
Q 2822 3834 2567 4026 
Q 2313 4219 1838 4219 
Q 1578 4219 1281 4162 
Q 984 4106 628 3988 
L 628 4550 
Q 988 4650 1302 4700 
Q 1616 4750 1894 4750 
Q 2613 4750 3031 4423 
Q 3450 4097 3450 3541 
Q 3450 3153 3228 2886 
Q 3006 2619 2597 2516 
z
" transform="scale(0.015625)"/>
     </defs>
     <use xlink:href="#DejaVuSans-31"/>
     <use xlink:href="#DejaVuSans-37" transform="translate(63.623047 0)"/>
     <use xlink:href="#DejaVuSans-32" transform="translate(127.246094 0)"/>
     <use xlink:href="#DejaVuSans-33" transform="translate(190.869141 0)"/>
    </g>
   </g>
   <g id="text_5">
    <!-- HS &amp; HA -->
    <g transform="translate(158.752426 299.280241) scale(0.09 -0.09)">
     <use xlink:href="#DejaVuSans-48"/>
     <use xlink:href="#DejaVuSans-53" transform="translate(75.195312 0)"/>
     <use xlink:href="#DejaVuSans-20" transform="translate(138.671875 0)"/>
     <use xlink:href="#DejaVuSans-26" transform="translate(170.458984 0)"/>
     <use xlink:href="#DejaVuSans-20" transform="translate(248.4375 0)"/>
     <use xlink:href="#DejaVuSans-48" transform="translate(280.224609 0)"/>
     <use xlink:href="#DejaVuSans-41" transform="translate(355.419922 0)"/>
    </g>
    <!-- 28 -->
    <g transform="translate(172.099144 309.358272) scale(0.09 -0.09)">
     <use xlink:href="#DejaVuSans-32"/>
     <use xlink:href="#DejaVuSans-38" transform="translate(63.623047 0)"/>
    </g>
   </g>
   <g id="text_6">
    <!-- HM &amp; HA -->
    <g transform="translate(343.894702 283.680936) scale(0.09 -0.09)">
     <use xlink:href="#DejaVuSans-48"/>
     <use xlink:href="#DejaVuSans-4d" transform="translate(75.195312 0)"/>
     <use xlink:href="#DejaVuSans-20" transform="translate(161.474609 0)"/>
     <use xlink:href="#DejaVuSans-26" transform="translate(193.261719 0)"/>
     <use xlink:href="#DejaVuSans-20" transform="translate(271.240234 0)"/>
     <use xlink:href="#DejaVuSans-48" transform="translate(303.027344 0)"/>
     <use xlink:href="#DejaVuSans-41" transform="translate(378.222656 0)"/>
    </g>
    <!-- 441 -->
    <g transform="translate(355.404155 293.758968) scale(0.09 -0.09)">
     <defs>
      <path id="DejaVuSans-34" d="M 2419 4116 
L 825 1625 
L 2419 1625 
L 2419 4116 
z
M 2253 4666 
L 3047 4666 
L 3047 1625 
L 3713 1625 
L 3713 1100 
L 3047 1100 
L 3047 0 
L 2419 0 
L 2419 1100 
L 313 1100 
L 313 1709 
L 2253 4666 
z
" transform="scale(0.015625)"/>
     </defs>
     <use xlink:href="#DejaVuSans-34"/>
     <use xlink:href="#DejaVuSans-34" transform="translate(63.623047 0)"/>
     <use xlink:href="#DejaVuSans-31" transform="translate(127.246094 0)"/>
    </g>
   </g>
   <g id="text_7">
    <!-- HS &amp; HM &amp; HA -->
    <g transform="translate(202.480235 243.4546) scale(0.09 -0.09)">
     <use xlink:href="#DejaVuSans-48"/>
     <use xlink:href="#DejaVuSans-53" transform="translate(75.195312 0)"/>
     <use xlink:href="#DejaVuSans-20" transform="translate(138.671875 0)"/>
     <use xlink:href="#DejaVuSans-26" transform="translate(170.458984 0)"/>
     <use xlink:href="#DejaVuSans-20" transform="translate(248.4375 0)"/>
     <use xlink:href="#DejaVuSans-48" transform="translate(280.224609 0)"/>
     <use xlink:href="#DejaVuSans-4d" transform="translate(355.419922 0)"/>
     <use xlink:href="#DejaVuSans-20" transform="translate(441.699219 0)"/>
     <use xlink:href="#DejaVuSans-26" transform="translate(473.486328 0)"/>
     <use xlink:href="#DejaVuSans-20" transform="translate(551.464844 0)"/>
     <use xlink:href="#DejaVuSans-48" transform="translate(583.251953 0)"/>
     <use xlink:href="#DejaVuSans-41" transform="translate(658.447266 0)"/>
    </g>
    <!-- 219 -->
    <g transform="translate(226.600235 253.532631) scale(0.09 -0.09)">
     <defs>
      <path id="DejaVuSans-39" d="M 703 97 
L 703 672 
Q 941 559 1184 500 
Q 1428 441 1663 441 
Q 2288 441 2617 861 
Q 2947 1281 2994 2138 
Q 2813 1869 2534 1725 
Q 2256 1581 1919 1581 
Q 1219 1581 811 2004 
Q 403 2428 403 3163 
Q 403 3881 828 4315 
Q 1253 4750 1959 4750 
Q 2769 4750 3195 4129 
Q 3622 3509 3622 2328 
Q 3622 1225 3098 567 
Q 2575 -91 1691 -91 
Q 1453 -91 1209 -44 
Q 966 3 703 97 
z
M 1959 2075 
Q 2384 2075 2632 2365 
Q 2881 2656 2881 3163 
Q 2881 3666 2632 3958 
Q 2384 4250 1959 4250 
Q 1534 4250 1286 3958 
Q 1038 3666 1038 3163 
Q 1038 2656 1286 2365 
Q 1534 2075 1959 2075 
z
" transform="scale(0.015625)"/>
     </defs>
     <use xlink:href="#DejaVuSans-32"/>
     <use xlink:href="#DejaVuSans-31" transform="translate(63.623047 0)"/>
     <use xlink:href="#DejaVuSans-39" transform="translate(127.246094 0)"/>
    </g>
   </g>
   <g id="text_8">
    <!-- HS -->
    <g transform="translate(81.485241 91.23433) scale(0.14 -0.14)">
     <defs>
      <path id="DejaVuSans-Bold-48" d="M 588 4666 
L 1791 4666 
L 1791 2888 
L 3566 2888 
L 3566 4666 
L 4769 4666 
L 4769 0 
L 3566 0 
L 3566 1978 
L 1791 1978 
L 1791 0 
L 588 0 
L 588 4666 
z
" transform="scale(0.015625)"/>
      <path id="DejaVuSans-Bold-53" d="M 3834 4519 
L 3834 3531 
Q 3450 3703 3084 3790 
Q 2719 3878 2394 3878 
Q 1963 3878 1756 3759 
Q 1550 3641 1550 3391 
Q 1550 3203 1689 3098 
Q 1828 2994 2194 2919 
L 2706 2816 
Q 3484 2659 3812 2340 
Q 4141 2022 4141 1434 
Q 4141 663 3683 286 
Q 3225 -91 2284 -91 
Q 1841 -91 1394 -6 
Q 947 78 500 244 
L 500 1259 
Q 947 1022 1364 901 
Q 1781 781 2169 781 
Q 2563 781 2772 912 
Q 2981 1044 2981 1288 
Q 2981 1506 2839 1625 
Q 2697 1744 2272 1838 
L 1806 1941 
Q 1106 2091 782 2419 
Q 459 2747 459 3303 
Q 459 4000 909 4375 
Q 1359 4750 2203 4750 
Q 2588 4750 2994 4692 
Q 3400 4634 3834 4519 
z
" transform="scale(0.015625)"/>
     </defs>
     <use xlink:href="#DejaVuSans-Bold-48"/>
     <use xlink:href="#DejaVuSans-Bold-53" transform="translate(83.691406 0)"/>
    </g>
   </g>
   <g id="text_9">
    <!-- HM -->
    <g transform="translate(422.463706 64.294451) scale(0.14 -0.14)">
     <defs>
      <path id="DejaVuSans-Bold-4d" d="M 588 4666 
L 2119 4666 
L 3181 2169 
L 4250 4666 
L 5778 4666 
L 5778 0 
L 4641 0 
L 4641 3413 
L 3566 897 
L 2803 897 
L 1728 3413 
L 1728 0 
L 588 0 
L 588 4666 
z
" transform="scale(0.015625)"/>
     </defs>
     <use xlink:href="#DejaVuSans-Bold-48"/>
     <use xlink:href="#DejaVuSans-Bold-4d" transform="translate(83.691406 0)"/>
    </g>
   </g>
   <g id="text_10">
    <!-- HA -->
    <g transform="translate(276.131294 549.630593) scale(0.14 -0.14)">
     <defs>
      <path id="DejaVuSans-Bold-41" d="M 3419 850 
L 1538 850 
L 1241 0 
L 31 0 
L 1759 4666 
L 3194 4666 
L 4922 0 
L 3713 0 
L 3419 850 
z
M 1838 1716 
L 3116 1716 
L 2478 3572 
L 1838 1716 
z
" transform="scale(0.015625)"/>
     </defs>
     <use xlink:href="#DejaVuSans-Bold-48"/>
     <use xlink:href="#DejaVuSans-Bold-41" transform="translate(83.691406 0)"/>
    </g>
   </g>
   <g id="text_11">
    <!-- Unannotated Proteins (BLASTp RBH, ≥60% identity) -->
    <g transform="translate(34.572412 19.3575) scale(0.16 -0.16)">
     <defs>
      <path id="DejaVuSans-Bold-55" d="M 588 4666 
L 1791 4666 
L 1791 1869 
Q 1791 1291 1980 1042 
Q 2169 794 2597 794 
Q 3028 794 3217 1042 
Q 3406 1291 3406 1869 
L 3406 4666 
L 4609 4666 
L 4609 1869 
Q 4609 878 4112 393 
Q 3616 -91 2597 -91 
Q 1581 -91 1084 393 
Q 588 878 588 1869 
L 588 4666 
z
" transform="scale(0.015625)"/>
      <path id="DejaVuSans-Bold-6e" d="M 4056 2131 
L 4056 0 
L 2931 0 
L 2931 347 
L 2931 1631 
Q 2931 2084 2911 2256 
Q 2891 2428 2841 2509 
Q 2775 2619 2662 2680 
Q 2550 2741 2406 2741 
Q 2056 2741 1856 2470 
Q 1656 2200 1656 1722 
L 1656 0 
L 538 0 
L 538 3500 
L 1656 3500 
L 1656 2988 
Q 1909 3294 2193 3439 
Q 2478 3584 2822 3584 
Q 3428 3584 3742 3212 
Q 4056 2841 4056 2131 
z
" transform="scale(0.015625)"/>
      <path id="DejaVuSans-Bold-61" d="M 2106 1575 
Q 1756 1575 1579 1456 
Q 1403 1338 1403 1106 
Q 1403 894 1545 773 
Q 1688 653 1941 653 
Q 2256 653 2472 879 
Q 2688 1106 2688 1447 
L 2688 1575 
L 2106 1575 
z
M 3816 1997 
L 3816 0 
L 2688 0 
L 2688 519 
Q 2463 200 2181 54 
Q 1900 -91 1497 -91 
Q 953 -91 614 226 
Q 275 544 275 1050 
Q 275 1666 698 1953 
Q 1122 2241 2028 2241 
L 2688 2241 
L 2688 2328 
Q 2688 2594 2478 2717 
Q 2269 2841 1825 2841 
Q 1466 2841 1156 2769 
Q 847 2697 581 2553 
L 581 3406 
Q 941 3494 1303 3539 
Q 1666 3584 2028 3584 
Q 2975 3584 3395 3211 
Q 3816 2838 3816 1997 
z
" transform="scale(0.015625)"/>
      <path id="DejaVuSans-Bold-6f" d="M 2203 2784 
Q 1831 2784 1636 2517 
Q 1441 2250 1441 1747 
Q 1441 1244 1636 976 
Q 1831 709 2203 709 
Q 2569 709 2762 976 
Q 2956 1244 2956 1747 
Q 2956 2250 2762 2517 
Q 2569 2784 2203 2784 
z
M 2203 3584 
Q 3106 3584 3614 3096 
Q 4122 2609 4122 1747 
Q 4122 884 3614 396 
Q 3106 -91 2203 -91 
Q 1297 -91 786 396 
Q 275 884 275 1747 
Q 275 2609 786 3096 
Q 1297 3584 2203 3584 
z
" transform="scale(0.015625)"/>
      <path id="DejaVuSans-Bold-74" d="M 1759 4494 
L 1759 3500 
L 2913 3500 
L 2913 2700 
L 1759 2700 
L 1759 1216 
Q 1759 972 1856 886 
Q 1953 800 2241 800 
L 2816 800 
L 2816 0 
L 1856 0 
Q 1194 0 917 276 
Q 641 553 641 1216 
L 641 2700 
L 84 2700 
L 84 3500 
L 641 3500 
L 641 4494 
L 1759 4494 
z
" transform="scale(0.015625)"/>
      <path id="DejaVuSans-Bold-65" d="M 4031 1759 
L 4031 1441 
L 1416 1441 
Q 1456 1047 1700 850 
Q 1944 653 2381 653 
Q 2734 653 3104 758 
Q 3475 863 3866 1075 
L 3866 213 
Q 3469 63 3072 -14 
Q 2675 -91 2278 -91 
Q 1328 -91 801 392 
Q 275 875 275 1747 
Q 275 2603 792 3093 
Q 1309 3584 2216 3584 
Q 3041 3584 3536 3087 
Q 4031 2591 4031 1759 
z
M 2881 2131 
Q 2881 2450 2695 2645 
Q 2509 2841 2209 2841 
Q 1884 2841 1681 2658 
Q 1478 2475 1428 2131 
L 2881 2131 
z
" transform="scale(0.015625)"/>
      <path id="DejaVuSans-Bold-64" d="M 2919 2988 
L 2919 4863 
L 4044 4863 
L 4044 0 
L 2919 0 
L 2919 506 
Q 2688 197 2409 53 
Q 2131 -91 1766 -91 
Q 1119 -91 703 423 
Q 288 938 288 1747 
Q 288 2556 703 3070 
Q 1119 3584 1766 3584 
Q 2128 3584 2408 3439 
Q 2688 3294 2919 2988 
z
M 2181 722 
Q 2541 722 2730 984 
Q 2919 1247 2919 1747 
Q 2919 2247 2730 2509 
Q 2541 2772 2181 2772 
Q 1825 2772 1636 2509 
Q 1447 2247 1447 1747 
Q 1447 1247 1636 984 
Q 1825 722 2181 722 
z
" transform="scale(0.015625)"/>
      <path id="DejaVuSans-Bold-20" transform="scale(0.015625)"/>
      <path id="DejaVuSans-Bold-50" d="M 588 4666 
L 2584 4666 
Q 3475 4666 3951 4270 
Q 4428 3875 4428 3144 
Q 4428 2409 3951 2014 
Q 3475 1619 2584 1619 
L 1791 1619 
L 1791 0 
L 588 0 
L 588 4666 
z
M 1791 3794 
L 1791 2491 
L 2456 2491 
Q 2806 2491 2997 2661 
Q 3188 2831 3188 3144 
Q 3188 3456 2997 3625 
Q 2806 3794 2456 3794 
L 1791 3794 
z
" transform="scale(0.015625)"/>
      <path id="DejaVuSans-Bold-72" d="M 3138 2547 
Q 2991 2616 2845 2648 
Q 2700 2681 2553 2681 
Q 2122 2681 1889 2404 
Q 1656 2128 1656 1613 
L 1656 0 
L 538 0 
L 538 3500 
L 1656 3500 
L 1656 2925 
Q 1872 3269 2151 3426 
Q 2431 3584 2822 3584 
Q 2878 3584 2943 3579 
Q 3009 3575 3134 3559 
L 3138 2547 
z
" transform="scale(0.015625)"/>
      <path id="DejaVuSans-Bold-69" d="M 538 3500 
L 1656 3500 
L 1656 0 
L 538 0 
L 538 3500 
z
M 538 4863 
L 1656 4863 
L 1656 3950 
L 538 3950 
L 538 4863 
z
" transform="scale(0.015625)"/>
      <path id="DejaVuSans-Bold-73" d="M 3272 3391 
L 3272 2541 
Q 2913 2691 2578 2766 
Q 2244 2841 1947 2841 
Q 1628 2841 1473 2761 
Q 1319 2681 1319 2516 
Q 1319 2381 1436 2309 
Q 1553 2238 1856 2203 
L 2053 2175 
Q 2913 2066 3209 1816 
Q 3506 1566 3506 1031 
Q 3506 472 3093 190 
Q 2681 -91 1863 -91 
Q 1516 -91 1145 -36 
Q 775 19 384 128 
L 384 978 
Q 719 816 1070 734 
Q 1422 653 1784 653 
Q 2113 653 2278 743 
Q 2444 834 2444 1013 
Q 2444 1163 2330 1236 
Q 2216 1309 1875 1350 
L 1678 1375 
Q 931 1469 631 1722 
Q 331 1975 331 2491 
Q 331 3047 712 3315 
Q 1094 3584 1881 3584 
Q 2191 3584 2531 3537 
Q 2872 3491 3272 3391 
z
" transform="scale(0.015625)"/>
      <path id="DejaVuSans-Bold-28" d="M 2413 -844 
L 1484 -844 
Q 1006 -72 778 623 
Q 550 1319 550 2003 
Q 550 2688 779 3389 
Q 1009 4091 1484 4856 
L 2413 4856 
Q 2013 4116 1813 3408 
Q 1613 2700 1613 2009 
Q 1613 1319 1811 609 
Q 2009 -100 2413 -844 
z
" transform="scale(0.015625)"/>
      <path id="DejaVuSans-Bold-42" d="M 2456 2859 
Q 2741 2859 2887 2984 
Q 3034 3109 3034 3353 
Q 3034 3594 2887 3720 
Q 2741 3847 2456 3847 
L 1791 3847 
L 1791 2859 
L 2456 2859 
z
M 2497 819 
Q 2859 819 3042 972 
Q 3225 1125 3225 1434 
Q 3225 1738 3044 1889 
Q 2863 2041 2497 2041 
L 1791 2041 
L 1791 819 
L 2497 819 
z
M 3616 2497 
Q 4003 2384 4215 2081 
Q 4428 1778 4428 1338 
Q 4428 663 3972 331 
Q 3516 0 2584 0 
L 588 0 
L 588 4666 
L 2394 4666 
Q 3366 4666 3802 4372 
Q 4238 4078 4238 3431 
Q 4238 3091 4078 2852 
Q 3919 2613 3616 2497 
z
" transform="scale(0.015625)"/>
      <path id="DejaVuSans-Bold-4c" d="M 588 4666 
L 1791 4666 
L 1791 909 
L 3903 909 
L 3903 0 
L 588 0 
L 588 4666 
z
" transform="scale(0.015625)"/>
      <path id="DejaVuSans-Bold-54" d="M 31 4666 
L 4331 4666 
L 4331 3756 
L 2784 3756 
L 2784 0 
L 1581 0 
L 1581 3756 
L 31 3756 
L 31 4666 
z
" transform="scale(0.015625)"/>
      <path id="DejaVuSans-Bold-70" d="M 1656 506 
L 1656 -1331 
L 538 -1331 
L 538 3500 
L 1656 3500 
L 1656 2988 
Q 1888 3294 2169 3439 
Q 2450 3584 2816 3584 
Q 3463 3584 3878 3070 
Q 4294 2556 4294 1747 
Q 4294 938 3878 423 
Q 3463 -91 2816 -91 
Q 2450 -91 2169 54 
Q 1888 200 1656 506 
z
M 2400 2772 
Q 2041 2772 1848 2508 
Q 1656 2244 1656 1747 
Q 1656 1250 1848 986 
Q 2041 722 2400 722 
Q 2759 722 2948 984 
Q 3138 1247 3138 1747 
Q 3138 2247 2948 2509 
Q 2759 2772 2400 2772 
z
" transform="scale(0.015625)"/>
      <path id="DejaVuSans-Bold-52" d="M 2297 2597 
Q 2675 2597 2839 2737 
Q 3003 2878 3003 3200 
Q 3003 3519 2839 3656 
Q 2675 3794 2297 3794 
L 1791 3794 
L 1791 2597 
L 2297 2597 
z
M 1791 1766 
L 1791 0 
L 588 0 
L 588 4666 
L 2425 4666 
Q 3347 4666 3776 4356 
Q 4206 4047 4206 3378 
Q 4206 2916 3982 2619 
Q 3759 2322 3309 2181 
Q 3556 2125 3751 1926 
Q 3947 1728 4147 1325 
L 4800 0 
L 3519 0 
L 2950 1159 
Q 2778 1509 2601 1637 
Q 2425 1766 2131 1766 
L 1791 1766 
z
" transform="scale(0.015625)"/>
      <path id="DejaVuSans-Bold-2c" d="M 653 1209 
L 1778 1209 
L 1778 256 
L 1006 -909 
L 341 -909 
L 653 256 
L 653 1209 
z
" transform="scale(0.015625)"/>
      <path id="DejaVuSans-Bold-2265" d="M 678 744 
L 4684 744 
L 4684 0 
L 678 0 
L 678 744 
z
M 678 2963 
L 678 3725 
L 4684 2681 
L 4684 1947 
L 678 897 
L 678 1656 
L 3481 2309 
L 678 2963 
z
" transform="scale(0.015625)"/>
      <path id="DejaVuSans-Bold-36" d="M 2316 2303 
Q 2000 2303 1842 2098 
Q 1684 1894 1684 1484 
Q 1684 1075 1842 870 
Q 2000 666 2316 666 
Q 2634 666 2792 870 
Q 2950 1075 2950 1484 
Q 2950 1894 2792 2098 
Q 2634 2303 2316 2303 
z
M 3803 4544 
L 3803 3681 
Q 3506 3822 3243 3889 
Q 2981 3956 2731 3956 
Q 2194 3956 1894 3657 
Q 1594 3359 1544 2772 
Q 1750 2925 1990 3001 
Q 2231 3078 2516 3078 
Q 3231 3078 3670 2659 
Q 4109 2241 4109 1563 
Q 4109 813 3618 361 
Q 3128 -91 2303 -91 
Q 1394 -91 895 523 
Q 397 1138 397 2266 
Q 397 3422 980 4083 
Q 1563 4744 2578 4744 
Q 2900 4744 3203 4694 
Q 3506 4644 3803 4544 
z
" transform="scale(0.015625)"/>
      <path id="DejaVuSans-Bold-30" d="M 2944 2338 
Q 2944 3213 2780 3570 
Q 2616 3928 2228 3928 
Q 1841 3928 1675 3570 
Q 1509 3213 1509 2338 
Q 1509 1453 1675 1090 
Q 1841 728 2228 728 
Q 2613 728 2778 1090 
Q 2944 1453 2944 2338 
z
M 4147 2328 
Q 4147 1169 3647 539 
Q 3147 -91 2228 -91 
Q 1306 -91 806 539 
Q 306 1169 306 2328 
Q 306 3491 806 4120 
Q 1306 4750 2228 4750 
Q 3147 4750 3647 4120 
Q 4147 3491 4147 2328 
z
" transform="scale(0.015625)"/>
      <path id="DejaVuSans-Bold-25" d="M 4959 1925 
Q 4738 1925 4616 1733 
Q 4494 1541 4494 1184 
Q 4494 825 4614 633 
Q 4734 441 4959 441 
Q 5184 441 5303 633 
Q 5422 825 5422 1184 
Q 5422 1541 5301 1733 
Q 5181 1925 4959 1925 
z
M 4959 2450 
Q 5541 2450 5875 2112 
Q 6209 1775 6209 1184 
Q 6209 594 5875 251 
Q 5541 -91 4959 -91 
Q 4378 -91 4042 251 
Q 3706 594 3706 1184 
Q 3706 1772 4042 2111 
Q 4378 2450 4959 2450 
z
M 2094 -91 
L 1403 -91 
L 4319 4750 
L 5013 4750 
L 2094 -91 
z
M 1453 4750 
Q 2034 4750 2367 4411 
Q 2700 4072 2700 3481 
Q 2700 2891 2367 2550 
Q 2034 2209 1453 2209 
Q 872 2209 539 2550 
Q 206 2891 206 3481 
Q 206 4072 539 4411 
Q 872 4750 1453 4750 
z
M 1453 4225 
Q 1228 4225 1106 4031 
Q 984 3838 984 3481 
Q 984 3122 1106 2926 
Q 1228 2731 1453 2731 
Q 1678 2731 1798 2926 
Q 1919 3122 1919 3481 
Q 1919 3838 1797 4031 
Q 1675 4225 1453 4225 
z
" transform="scale(0.015625)"/>
      <path id="DejaVuSans-Bold-79" d="M 78 3500 
L 1197 3500 
L 2138 1125 
L 2938 3500 
L 4056 3500 
L 2584 -331 
Q 2363 -916 2067 -1148 
Q 1772 -1381 1288 -1381 
L 641 -1381 
L 641 -647 
L 991 -647 
Q 1275 -647 1404 -556 
Q 1534 -466 1606 -231 
L 1638 -134 
L 78 3500 
z
" transform="scale(0.015625)"/>
      <path id="DejaVuSans-Bold-29" d="M 513 -844 
Q 913 -100 1113 609 
Q 1313 1319 1313 2009 
Q 1313 2700 1113 3408 
Q 913 4116 513 4856 
L 1441 4856 
Q 1916 4091 2145 3389 
Q 2375 2688 2375 2003 
Q 2375 1319 2147 623 
Q 1919 -72 1441 -844 
L 513 -844 
z
" transform="scale(0.015625)"/>
     </defs>
     <use xlink:href="#DejaVuSans-Bold-55"/>
     <use xlink:href="#DejaVuSans-Bold-6e" transform="translate(81.201172 0)"/>
     <use xlink:href="#DejaVuSans-Bold-61" transform="translate(152.392578 0)"/>
     <use xlink:href="#DejaVuSans-Bold-6e" transform="translate(219.873047 0)"/>
     <use xlink:href="#DejaVuSans-Bold-6e" transform="translate(291.064453 0)"/>
     <use xlink:href="#DejaVuSans-Bold-6f" transform="translate(362.255859 0)"/>
     <use xlink:href="#DejaVuSans-Bold-74" transform="translate(430.957031 0)"/>
     <use xlink:href="#DejaVuSans-Bold-61" transform="translate(478.759766 0)"/>
     <use xlink:href="#DejaVuSans-Bold-74" transform="translate(546.240234 0)"/>
     <use xlink:href="#DejaVuSans-Bold-65" transform="translate(594.042969 0)"/>
     <use xlink:href="#DejaVuSans-Bold-64" transform="translate(661.865234 0)"/>
     <use xlink:href="#DejaVuSans-Bold-20" transform="translate(733.447266 0)"/>
     <use xlink:href="#DejaVuSans-Bold-50" transform="translate(768.261719 0)"/>
     <use xlink:href="#DejaVuSans-Bold-72" transform="translate(841.552734 0)"/>
     <use xlink:href="#DejaVuSans-Bold-6f" transform="translate(890.869141 0)"/>
     <use xlink:href="#DejaVuSans-Bold-74" transform="translate(959.570312 0)"/>
     <use xlink:href="#DejaVuSans-Bold-65" transform="translate(1007.373047 0)"/>
     <use xlink:href="#DejaVuSans-Bold-69" transform="translate(1075.195312 0)"/>
     <use xlink:href="#DejaVuSans-Bold-6e" transform="translate(1109.472656 0)"/>
     <use xlink:href="#DejaVuSans-Bold-73" transform="translate(1180.664062 0)"/>
     <use xlink:href="#DejaVuSans-Bold-20" transform="translate(1240.185547 0)"/>
     <use xlink:href="#DejaVuSans-Bold-28" transform="translate(1275 0)"/>
     <use xlink:href="#DejaVuSans-Bold-42" transform="translate(1320.703125 0)"/>
     <use xlink:href="#DejaVuSans-Bold-4c" transform="translate(1396.923828 0)"/>
     <use xlink:href="#DejaVuSans-Bold-41" transform="translate(1460.644531 0)"/>
     <use xlink:href="#DejaVuSans-Bold-53" transform="translate(1538.037109 0)"/>
     <use xlink:href="#DejaVuSans-Bold-54" transform="translate(1610.058594 0)"/>
     <use xlink:href="#DejaVuSans-Bold-70" transform="translate(1678.271484 0)"/>
     <use xlink:href="#DejaVuSans-Bold-20" transform="translate(1749.853516 0)"/>
     <use xlink:href="#DejaVuSans-Bold-52" transform="translate(1784.667969 0)"/>
     <use xlink:href="#DejaVuSans-Bold-42" transform="translate(1861.669922 0)"/>
     <use xlink:href="#DejaVuSans-Bold-48" transform="translate(1937.890625 0)"/>
     <use xlink:href="#DejaVuSans-Bold-2c" transform="translate(2021.582031 0)"/>
     <use xlink:href="#DejaVuSans-Bold-20" transform="translate(2059.570312 0)"/>
     <use xlink:href="#DejaVuSans-Bold-2265" transform="translate(2094.384766 0)"/>
     <use xlink:href="#DejaVuSans-Bold-36" transform="translate(2178.173828 0)"/>
     <use xlink:href="#DejaVuSans-Bold-30" transform="translate(2247.753906 0)"/>
     <use xlink:href="#DejaVuSans-Bold-25" transform="translate(2317.333984 0)"/>
     <use xlink:href="#DejaVuSans-Bold-20" transform="translate(2417.529297 0)"/>
     <use xlink:href="#DejaVuSans-Bold-69" transform="translate(2452.34375 0)"/>
     <use xlink:href="#DejaVuSans-Bold-64" transform="translate(2486.621094 0)"/>
     <use xlink:href="#DejaVuSans-Bold-65" transform="translate(2558.203125 0)"/>
     <use xlink:href="#DejaVuSans-Bold-6e" transform="translate(2626.025391 0)"/>
     <use xlink:href="#DejaVuSans-Bold-74" transform="translate(2697.216797 0)"/>
     <use xlink:href="#DejaVuSans-Bold-69" transform="translate(2745.019531 0)"/>
     <use xlink:href="#DejaVuSans-Bold-74" transform="translate(2779.296875 0)"/>
     <use xlink:href="#DejaVuSans-Bold-79" transform="translate(2827.099609 0)"/>
     <use xlink:href="#DejaVuSans-Bold-29" transform="translate(2892.285156 0)"/>
    </g>
   </g>
  </g>
 </g>
 <defs>
  <clipPath id="p15ebfbccf1">
   <rect x="7.2" y="25.3575" width="524.817324" height="536.88"/>
  </clipPath>
 </defs>
</svg>
